<?xml version="1.0" standalone="no"?>
<!DOCTYPE svg PUBLIC "-//W3C//DTD SVG 20010904//EN"
 "http://www.w3.org/TR/2001/REC-SVG-20010904/DTD/svg10.dtd">
<svg version="1.0" xmlns="http://www.w3.org/2000/svg"
 width="648.000000pt" height="601.000000pt" viewBox="0 0 648.000000 601.000000"
 preserveAspectRatio="xMidYMid meet">

<g transform="translate(0.000000,601.000000) scale(0.100000,-0.100000)"
fill="#000000" stroke="none">
<path d="M0 3005 l0 -3005 3240 0 3240 0 0 3005 0 3005 -3240 0 -3240 0 0
-3005z m878 2427 c-11 -2 -18 -13 -18 -28 0 -21 5 -24 35 -24 32 0 35 3 35 28
0 28 2 29 48 28 26 0 39 -2 30 -4 -11 -2 -18 -13 -18 -28 0 -21 5 -24 35 -24
32 0 35 3 35 28 0 28 2 29 48 28 26 0 39 -2 30 -4 -11 -2 -18 -13 -18 -28 0
-20 5 -24 30 -24 26 0 30 3 30 29 0 28 1 29 53 28 28 -1 44 -3 35 -5 -11 -2
-18 -13 -18 -28 0 -20 5 -24 30 -24 26 0 30 4 30 28 0 27 2 28 53 28 28 0 44
-2 35 -4 -11 -2 -18 -13 -18 -28 0 -20 5 -24 30 -24 26 0 30 4 30 28 0 28 2
29 48 28 26 0 39 -2 30 -4 -11 -2 -18 -13 -18 -28 0 -21 5 -24 35 -24 32 0 35
3 35 28 0 28 2 29 48 28 26 0 39 -2 30 -4 -11 -2 -18 -13 -18 -28 0 -21 5 -24
35 -24 32 0 35 3 35 28 0 28 2 29 48 28 26 0 39 -2 30 -4 -11 -2 -18 -13 -18
-28 0 -20 5 -24 30 -24 26 0 30 3 30 29 0 28 1 29 53 28 28 -1 44 -3 35 -5
-11 -2 -18 -13 -18 -28 0 -20 5 -24 30 -24 26 0 30 4 30 28 0 27 2 28 53 28
28 0 44 -2 35 -4 -11 -2 -18 -13 -18 -28 0 -20 5 -24 30 -24 26 0 30 4 30 28
0 28 2 29 48 28 26 0 39 -2 30 -4 -11 -2 -18 -13 -18 -28 0 -21 5 -24 35 -24
32 0 35 3 35 28 0 28 2 29 48 28 26 0 39 -2 30 -4 -11 -2 -18 -13 -18 -28 0
-21 5 -24 35 -24 32 0 35 3 35 28 0 28 2 29 48 28 26 0 39 -2 30 -4 -11 -2
-18 -13 -18 -28 0 -20 5 -24 30 -24 26 0 30 3 30 29 0 28 1 29 53 28 28 -1 44
-3 35 -5 -11 -2 -18 -13 -18 -28 0 -20 5 -24 30 -24 26 0 30 4 30 28 0 27 2
28 53 28 28 0 44 -2 35 -4 -11 -2 -18 -13 -18 -28 0 -20 5 -24 30 -24 26 0 30
4 30 28 0 28 2 29 48 28 26 0 39 -2 30 -4 -11 -2 -18 -13 -18 -28 0 -21 5 -24
35 -24 32 0 35 3 35 28 0 28 2 29 48 28 26 0 39 -2 30 -4 -11 -2 -18 -13 -18
-28 0 -21 5 -24 35 -24 32 0 35 3 35 28 0 28 2 29 48 28 26 0 39 -2 30 -4 -11
-2 -18 -13 -18 -28 0 -20 5 -24 30 -24 26 0 30 3 30 29 0 28 1 29 53 28 28 -1
44 -3 35 -5 -11 -2 -18 -13 -18 -28 0 -20 5 -24 30 -24 26 0 30 4 30 28 0 27
2 28 53 28 28 0 44 -2 35 -4 -11 -2 -18 -13 -18 -28 0 -20 5 -24 30 -24 26 0
30 4 30 28 0 28 2 29 48 28 26 0 39 -2 30 -4 -11 -2 -18 -13 -18 -28 0 -21 5
-24 35 -24 32 0 35 3 35 28 0 28 2 29 48 28 26 0 39 -2 30 -4 -11 -2 -18 -13
-18 -28 0 -21 5 -24 35 -24 32 0 35 3 35 28 0 28 2 29 48 28 26 0 39 -2 30 -4
-11 -2 -18 -13 -18 -28 0 -20 5 -24 30 -24 26 0 30 3 30 29 0 28 1 29 53 28
28 -1 44 -3 35 -5 -11 -2 -18 -13 -18 -28 0 -20 5 -24 30 -24 26 0 30 4 30 28
0 27 2 28 53 28 28 0 44 -2 35 -4 -11 -2 -18 -13 -18 -28 0 -20 5 -24 30 -24
26 0 30 4 30 28 0 28 2 29 48 28 26 0 39 -2 30 -4 -11 -2 -18 -13 -18 -28 0
-21 5 -24 35 -24 32 0 35 3 35 28 0 28 2 29 48 28 26 0 39 -2 30 -4 -11 -2
-18 -13 -18 -28 0 -21 5 -24 35 -24 32 0 35 3 35 28 0 28 2 29 48 28 26 0 39
-2 30 -4 -11 -2 -18 -13 -18 -28 0 -20 5 -24 30 -24 26 0 30 3 30 29 0 28 1
29 53 28 28 -1 44 -3 35 -5 -11 -2 -18 -13 -18 -28 0 -20 5 -24 30 -24 26 0
30 4 30 28 0 27 2 28 53 28 28 0 44 -2 35 -4 -11 -2 -18 -13 -18 -28 0 -20 5
-24 30 -24 26 0 30 4 30 28 0 28 2 29 48 28 26 0 39 -2 30 -4 -11 -2 -18 -13
-18 -28 0 -21 5 -24 35 -24 32 0 35 3 35 28 0 28 2 29 48 28 26 0 39 -2 30 -4
-11 -2 -18 -13 -18 -28 0 -21 5 -24 35 -24 32 0 35 3 35 28 0 28 2 29 48 28
26 0 39 -2 30 -4 -11 -2 -18 -13 -18 -28 0 -20 5 -24 30 -24 26 0 30 3 30 29
0 28 1 29 53 28 28 -1 44 -3 35 -5 -11 -2 -18 -13 -18 -28 0 -20 5 -24 30 -24
26 0 30 4 30 28 0 27 2 28 53 28 28 0 44 -2 35 -4 -11 -2 -18 -13 -18 -28 0
-20 5 -24 30 -24 26 0 30 4 30 28 0 28 2 29 48 28 26 0 39 -2 30 -4 -19 -4
-26 -52 -8 -52 6 0 10 5 10 10 0 6 5 10 10 10 6 0 10 -7 10 -15 0 -8 -4 -15
-10 -15 -5 0 -10 -7 -10 -15 0 -8 5 -15 10 -15 6 0 10 -7 10 -15 0 -8 -9 -15
-20 -15 -16 0 -20 -7 -20 -30 0 -16 5 -30 10 -30 6 0 10 5 10 10 0 6 5 10 10
10 6 0 10 -7 10 -15 0 -8 -4 -15 -10 -15 -5 0 -10 -7 -10 -15 0 -8 5 -15 10
-15 6 0 10 -7 10 -16 0 -11 -6 -14 -20 -9 -17 6 -20 2 -20 -29 0 -35 14 -49
23 -23 2 6 8 9 12 5 4 -4 2 -14 -4 -22 -10 -11 -9 -19 1 -35 14 -23 8 -34 -16
-25 -10 4 -16 17 -16 35 0 26 -4 29 -30 29 -27 0 -30 -3 -30 -30 0 -27 3 -30
30 -30 28 0 30 -3 30 -35 0 -39 6 -43 26 -17 11 14 13 15 14 1 0 -8 -5 -20
-12 -27 -9 -9 -9 -15 0 -24 19 -19 14 -37 -8 -31 -17 5 -20 0 -20 -26 0 -28
-3 -31 -30 -31 -28 0 -30 -3 -30 -35 0 -32 2 -35 30 -35 27 0 30 3 30 31 0 30
25 67 38 55 3 -4 0 -16 -7 -28 -9 -14 -10 -23 -2 -31 17 -17 13 -27 -9 -27
-16 0 -20 -7 -20 -30 0 -16 5 -30 10 -30 6 0 10 5 10 10 0 6 5 10 10 10 6 0
10 -7 10 -15 0 -8 -4 -15 -10 -15 -5 0 -10 -7 -10 -15 0 -8 5 -15 10 -15 6 0
10 -7 10 -15 0 -8 -9 -15 -20 -15 -16 0 -20 -7 -20 -30 0 -16 5 -30 10 -30 6
0 10 5 10 10 0 6 5 10 10 10 6 0 10 -7 10 -15 0 -8 -4 -15 -10 -15 -5 0 -10
-7 -10 -15 0 -8 5 -15 10 -15 6 0 10 -7 10 -16 0 -11 -6 -14 -20 -9 -17 6 -20
2 -20 -29 0 -35 14 -49 23 -23 2 6 8 9 12 5 4 -4 2 -14 -4 -22 -10 -11 -9 -19
1 -35 14 -23 8 -34 -16 -25 -10 4 -16 17 -16 35 0 26 -4 29 -30 29 -27 0 -30
-3 -30 -30 0 -27 3 -30 30 -30 28 0 30 -3 30 -35 0 -39 6 -43 26 -17 11 14 13
15 14 1 0 -8 -5 -20 -12 -27 -9 -9 -9 -15 0 -24 19 -19 14 -37 -8 -31 -17 4
-20 0 -20 -25 0 -26 -4 -31 -27 -34 -23 -2 -29 -8 -31 -35 -3 -31 -1 -33 27
-33 28 0 31 3 31 31 0 30 25 67 38 55 3 -4 0 -16 -7 -28 -9 -14 -10 -23 -2
-31 17 -17 13 -27 -9 -27 -16 0 -20 -7 -20 -30 0 -16 5 -30 10 -30 6 0 10 5
10 10 0 6 5 10 10 10 6 0 10 -7 10 -15 0 -8 -4 -15 -10 -15 -5 0 -10 -7 -10
-15 0 -8 5 -15 10 -15 6 0 10 -7 10 -15 0 -8 -9 -15 -20 -15 -16 0 -20 -7 -20
-30 0 -16 5 -30 10 -30 6 0 10 5 10 10 0 6 5 10 10 10 6 0 10 -7 10 -15 0 -8
-4 -15 -10 -15 -5 0 -10 -7 -10 -15 0 -8 5 -15 10 -15 6 0 10 -7 10 -16 0 -11
-6 -14 -20 -9 -17 6 -20 2 -20 -29 0 -35 14 -49 23 -23 2 6 8 9 12 5 4 -4 2
-14 -4 -22 -10 -11 -9 -19 1 -35 14 -23 8 -34 -16 -25 -10 4 -16 17 -16 35 0
26 -4 29 -30 29 -28 0 -30 3 -30 35 0 32 2 35 30 35 27 0 30 3 30 30 0 27 -3
30 -30 30 -26 0 -30 -4 -30 -28 0 -15 -4 -32 -9 -38 -4 -5 -11 -21 -15 -36 -5
-21 -3 -28 9 -28 10 0 15 -10 15 -30 0 -27 3 -30 30 -30 28 0 30 -3 30 -35 0
-39 6 -43 26 -17 11 14 13 15 14 1 0 -8 -5 -20 -12 -27 -9 -9 -9 -15 0 -24 19
-19 14 -37 -8 -31 -17 5 -20 0 -20 -26 0 -28 -3 -31 -30 -31 -28 0 -30 -3 -30
-35 0 -32 2 -35 30 -35 27 0 30 3 30 31 0 30 25 67 38 55 3 -4 0 -16 -7 -28
-9 -14 -10 -23 -2 -31 17 -17 13 -27 -9 -27 -16 0 -20 -7 -20 -30 0 -16 5 -30
10 -30 6 0 10 5 10 10 0 6 5 10 10 10 6 0 10 -7 10 -15 0 -8 -4 -15 -10 -15
-5 0 -10 -7 -10 -15 0 -8 5 -15 10 -15 6 0 10 -7 10 -15 0 -8 -9 -15 -20 -15
-16 0 -20 -7 -20 -30 0 -16 5 -30 10 -30 6 0 10 5 10 10 0 6 5 10 10 10 6 0
10 -7 10 -15 0 -8 -4 -15 -10 -15 -5 0 -10 -7 -10 -15 0 -8 5 -15 10 -15 6 0
10 -7 10 -16 0 -11 -6 -14 -20 -9 -17 6 -20 2 -20 -29 0 -35 14 -49 23 -23 2
6 8 9 12 5 4 -4 2 -14 -4 -22 -10 -11 -9 -19 1 -35 14 -23 8 -34 -16 -25 -10
4 -16 17 -16 35 0 26 -4 29 -30 29 -27 0 -30 -3 -30 -30 0 -27 3 -30 30 -30
28 0 30 -3 30 -35 0 -39 6 -43 26 -17 11 14 13 15 14 1 0 -8 -5 -20 -12 -27
-9 -9 -9 -15 0 -24 19 -19 14 -37 -8 -31 -17 5 -20 0 -20 -26 0 -28 -3 -31
-30 -31 -28 0 -30 -3 -30 -35 0 -32 2 -35 30 -35 27 0 30 3 30 31 0 30 25 67
38 55 3 -4 0 -16 -7 -28 -9 -14 -10 -23 -2 -31 17 -17 13 -27 -9 -27 -16 0
-20 -7 -20 -30 0 -16 5 -30 10 -30 6 0 10 5 10 10 0 6 5 10 10 10 6 0 10 -7
10 -15 0 -8 -4 -15 -10 -15 -5 0 -10 -7 -10 -15 0 -8 5 -15 10 -15 6 0 10 -7
10 -15 0 -8 -9 -15 -20 -15 -16 0 -20 -7 -20 -30 0 -16 5 -30 10 -30 6 0 10 5
10 10 0 6 5 10 10 10 6 0 10 -7 10 -15 0 -8 -4 -15 -10 -15 -5 0 -10 -7 -10
-15 0 -8 5 -15 10 -15 6 0 10 -7 10 -16 0 -11 -6 -14 -20 -9 -17 6 -20 2 -20
-29 0 -35 14 -49 23 -23 2 6 8 9 12 5 4 -4 2 -14 -4 -22 -10 -11 -9 -19 1 -35
14 -23 8 -34 -16 -25 -10 4 -16 17 -16 35 0 26 -4 29 -30 29 -27 0 -30 -3 -30
-30 0 -27 3 -30 30 -30 28 0 30 -3 30 -35 0 -39 6 -43 26 -18 11 15 13 16 14
2 0 -8 -5 -20 -12 -27 -9 -9 -9 -15 0 -24 19 -19 14 -37 -8 -31 -17 5 -20 0
-20 -26 0 -28 -3 -31 -30 -31 -28 0 -30 -3 -30 -35 0 -32 2 -35 30 -35 27 0
30 3 30 31 0 30 25 67 38 55 3 -4 0 -16 -7 -28 -9 -14 -10 -23 -2 -31 17 -17
13 -27 -9 -27 -16 0 -20 -7 -20 -30 0 -16 5 -30 10 -30 6 0 10 5 10 10 0 6 5
10 10 10 6 0 10 -7 10 -15 0 -8 -4 -15 -10 -15 -5 0 -10 -7 -10 -15 0 -8 5
-15 10 -15 6 0 10 -7 10 -15 0 -8 -9 -15 -20 -15 -16 0 -20 -7 -20 -30 0 -16
5 -30 10 -30 6 0 10 5 10 10 0 6 5 10 10 10 6 0 10 -7 10 -15 0 -8 -4 -15 -10
-15 -5 0 -10 -7 -10 -15 0 -8 5 -15 10 -15 6 0 10 -7 10 -16 0 -11 -6 -14 -20
-9 -17 6 -20 2 -20 -29 0 -35 14 -49 23 -23 2 6 8 9 12 5 4 -4 2 -14 -4 -22
-10 -11 -9 -19 1 -35 14 -23 8 -34 -16 -25 -10 4 -16 17 -16 35 0 26 -4 29
-30 29 -27 0 -30 -3 -30 -30 0 -27 3 -30 30 -30 28 0 30 -3 30 -35 0 -39 6
-43 26 -17 11 14 13 15 14 2 0 -9 -5 -21 -12 -28 -9 -9 -9 -15 0 -24 19 -19
14 -37 -8 -31 -17 5 -20 0 -20 -26 0 -28 -3 -31 -30 -31 -28 0 -30 -3 -30 -35
0 -32 2 -35 30 -35 27 0 30 3 30 31 0 30 25 67 38 55 3 -4 0 -16 -7 -28 -9
-14 -10 -23 -2 -31 17 -17 13 -27 -9 -27 -16 0 -20 -7 -20 -30 0 -16 5 -30 10
-30 6 0 10 5 10 10 0 6 5 10 10 10 6 0 10 -7 10 -15 0 -8 -4 -15 -10 -15 -5 0
-10 -7 -10 -15 0 -8 5 -15 10 -15 6 0 10 -7 10 -15 0 -8 -9 -15 -20 -15 -16 0
-20 -7 -20 -30 0 -16 5 -30 10 -30 6 0 10 5 10 10 0 6 5 10 10 10 6 0 10 -7
10 -15 0 -8 -4 -15 -9 -15 -5 0 -12 -8 -14 -17 -4 -15 -6 -15 -12 4 -10 31
-65 33 -65 4 0 -11 -5 -23 -10 -26 -18 -11 -50 6 -50 26 0 15 -7 19 -35 19
-28 0 -35 -4 -35 -19 0 -11 -5 -23 -10 -26 -18 -11 -50 6 -50 26 0 15 -7 19
-35 19 -28 0 -35 -4 -35 -19 0 -11 -5 -23 -10 -26 -18 -11 -50 6 -50 26 0 14
-7 19 -30 19 -17 0 -30 -5 -30 -12 0 -27 -17 -39 -43 -32 -17 4 -27 13 -27 25
0 14 -7 19 -30 19 -23 0 -30 -4 -30 -20 0 -11 -6 -23 -14 -26 -19 -7 -56 13
-56 31 0 10 -10 15 -30 15 -23 0 -30 -5 -30 -19 0 -11 -5 -23 -10 -26 -18 -11
-50 6 -50 26 0 15 -7 19 -35 19 -28 0 -35 -4 -35 -19 0 -11 -5 -23 -10 -26
-18 -11 -50 6 -50 26 0 14 7 19 30 19 27 0 30 3 30 30 0 27 -3 30 -30 30 -27
0 -30 -3 -30 -30 0 -28 -3 -30 -35 -30 -32 0 -35 2 -35 30 0 27 -3 30 -30 30
-27 0 -30 -3 -30 -30 0 -26 3 -30 29 -30 31 0 51 -28 29 -42 -26 -16 -58 -3
-58 23 0 14 -7 19 -30 19 -17 0 -30 -5 -30 -12 0 -27 -17 -39 -43 -32 -17 4
-27 13 -27 25 0 14 -7 19 -30 19 -23 0 -30 -4 -30 -20 0 -11 -6 -23 -14 -26
-19 -7 -56 13 -56 31 0 10 -10 15 -30 15 -23 0 -30 -5 -30 -19 0 -11 -5 -23
-10 -26 -18 -11 -50 6 -50 26 0 29 -51 25 -78 -6 -28 -33 -52 -33 -52 0 0 22
-4 25 -33 25 -31 0 -34 3 -34 30 0 27 3 30 34 30 31 0 33 2 33 35 0 33 -2 35
-35 35 -33 0 -35 -2 -35 -35 0 -32 -2 -35 -30 -35 -28 0 -30 3 -30 35 0 32 -2
35 -30 35 -28 0 -30 -3 -30 -35 0 -33 -2 -35 -35 -35 -33 0 -35 2 -35 35 0 32
-2 35 -30 35 -28 0 -30 -3 -30 -35 0 -33 -2 -35 -31 -35 -30 0 -69 -30 -69
-52 0 -4 -7 -8 -15 -8 -10 0 -15 10 -15 30 0 27 -3 30 -30 30 -27 0 -30 -3
-30 -30 0 -27 3 -30 30 -30 23 0 30 -5 30 -19 0 -11 -5 -23 -10 -26 -18 -11
-50 6 -50 26 0 15 -7 19 -35 19 -28 0 -35 -4 -35 -19 0 -11 -5 -23 -10 -26
-18 -11 -50 6 -50 26 0 15 -7 19 -35 19 -23 0 -35 5 -35 14 0 12 -40 46 -55
46 -3 0 -5 -13 -5 -30 0 -27 3 -30 30 -30 23 0 30 -5 30 -19 0 -11 -5 -23 -10
-26 -18 -11 -50 6 -50 26 0 14 -7 19 -30 19 -17 0 -30 -5 -30 -12 0 -27 -17
-39 -43 -32 -17 4 -27 13 -27 25 0 14 -7 19 -30 19 -23 0 -30 -4 -30 -20 0
-11 -6 -23 -14 -26 -19 -7 -56 13 -56 31 0 10 -10 15 -30 15 -23 0 -30 -5 -30
-19 0 -11 -5 -23 -10 -26 -18 -11 -50 6 -50 26 0 15 -7 19 -35 19 -28 0 -35
-4 -35 -19 0 -11 -5 -23 -10 -26 -18 -11 -50 6 -50 26 0 15 -7 19 -35 19 -28
0 -35 -4 -35 -19 0 -11 -5 -23 -10 -26 -18 -11 -50 6 -50 26 0 14 -7 19 -30
19 -17 0 -30 -5 -30 -12 0 -27 -17 -39 -43 -32 -17 4 -27 13 -27 25 0 14 -7
19 -30 19 -23 0 -30 -4 -30 -20 0 -11 -6 -23 -14 -26 -19 -7 -56 13 -56 31 0
10 -10 15 -30 15 -23 0 -30 -5 -30 -19 0 -11 -5 -23 -10 -26 -18 -11 -50 6
-50 26 0 15 -7 19 -35 19 -28 0 -35 -4 -35 -19 0 -11 -5 -23 -10 -26 -18 -11
-50 6 -50 26 0 15 -7 19 -35 19 -28 0 -35 -4 -35 -19 0 -11 -5 -23 -10 -26
-18 -11 -50 6 -50 26 0 14 -7 19 -30 19 -17 0 -30 -5 -30 -12 0 -27 -17 -39
-43 -32 -17 4 -27 13 -27 25 0 14 -7 19 -30 19 -23 0 -30 -4 -30 -20 0 -11 -6
-23 -14 -26 -19 -7 -56 13 -56 31 0 10 -10 15 -30 15 -23 0 -30 -5 -30 -19 0
-11 -5 -23 -10 -26 -18 -11 -50 6 -50 26 0 15 -7 19 -35 19 -28 0 -35 -4 -35
-19 0 -11 -5 -23 -10 -26 -18 -11 -50 6 -50 26 0 15 -7 19 -35 19 -28 0 -35
-4 -35 -19 0 -11 -5 -23 -10 -26 -18 -11 -50 6 -50 26 0 14 -7 19 -30 19 -17
0 -30 -5 -30 -12 0 -27 -17 -39 -43 -32 -17 4 -27 13 -27 25 0 14 -7 19 -30
19 -23 0 -30 -4 -30 -20 0 -11 -6 -23 -14 -26 -19 -7 -56 13 -56 31 0 22 -48
19 -52 -3 -2 -9 -4 4 -4 31 -1 45 0 47 28 47 25 0 28 3 28 35 0 30 -3 35 -24
35 -15 0 -26 -7 -28 -18 -2 -9 -4 4 -4 31 -1 45 0 47 28 47 25 0 28 3 28 35 0
31 -3 35 -25 35 -14 0 -25 3 -25 8 0 4 -3 17 -6 30 -6 19 -3 22 25 22 28 0 31
3 31 30 0 25 -4 30 -24 30 -15 0 -26 -7 -28 -18 -2 -9 -4 7 -4 36 0 50 1 52
28 52 24 0 28 4 28 30 0 25 -4 30 -24 30 -15 0 -26 -7 -28 -18 -2 -9 -4 7 -5
36 -1 51 0 52 28 52 26 0 29 4 29 30 0 25 -4 30 -24 30 -15 0 -26 -7 -28 -17
-2 -10 -4 3 -4 30 -1 45 0 47 28 47 25 0 28 3 28 35 0 30 -3 35 -24 35 -15 0
-26 -7 -28 -17 -2 -10 -4 3 -4 30 -1 45 0 47 28 47 25 0 28 3 28 35 0 31 -3
35 -25 35 -14 0 -25 3 -25 8 0 4 -3 17 -6 30 -6 19 -3 22 25 22 28 0 31 3 31
30 0 25 -4 30 -24 30 -15 0 -26 -7 -28 -17 -2 -10 -4 6 -4 35 0 50 1 52 28 52
24 0 28 4 28 30 0 25 -4 30 -24 30 -15 0 -26 -7 -28 -17 -2 -10 -4 6 -5 35 -1
51 0 52 28 52 26 0 29 4 29 30 0 25 -4 30 -24 30 -15 0 -26 -7 -28 -17 -2 -10
-4 3 -4 30 -1 45 0 47 28 47 25 0 28 3 28 35 0 30 -3 35 -24 35 -15 0 -26 -7
-28 -17 -2 -10 -4 3 -4 30 -1 45 0 47 28 47 25 0 28 3 28 35 0 31 -3 35 -25
35 -14 0 -25 3 -25 8 0 4 -3 17 -6 30 -6 19 -3 22 25 22 28 0 31 3 31 30 0 25
-4 30 -24 30 -15 0 -26 -7 -28 -17 -2 -10 -4 6 -4 35 0 50 1 52 28 52 24 0 28
4 28 30 0 25 -4 30 -24 30 -15 0 -26 -7 -28 -17 -2 -10 -4 6 -5 35 -1 51 0 52
28 52 26 0 29 4 29 30 0 25 -4 30 -24 30 -15 0 -26 -7 -28 -17 -2 -10 -4 3 -4
30 -1 45 0 47 28 47 25 0 28 3 28 35 0 30 -3 35 -24 35 -15 0 -26 -7 -28 -17
-2 -10 -4 3 -4 30 -1 45 0 47 28 47 25 0 28 3 28 35 0 31 -3 35 -25 35 -14 0
-25 3 -25 8 0 4 -3 17 -6 30 -6 19 -3 22 25 22 28 0 31 3 31 30 0 25 -4 30
-24 30 -15 0 -26 -7 -28 -17 -2 -10 -4 6 -4 35 0 50 1 52 28 52 24 0 28 4 28
30 0 25 -4 30 -24 30 -15 0 -26 -7 -28 -17 -2 -10 -4 6 -5 35 -1 51 0 52 28
52 26 0 29 4 29 30 0 25 -4 30 -24 30 -15 0 -26 -7 -28 -17 -2 -10 -4 3 -4 30
-1 45 0 47 28 47 25 0 28 3 28 35 0 30 -3 35 -24 35 -15 0 -26 -7 -28 -17 -2
-10 -4 3 -4 30 -1 45 0 47 28 47 25 0 28 3 28 35 0 31 -3 35 -25 35 -14 0 -25
3 -25 8 0 4 -3 17 -6 30 -6 19 -3 22 25 22 28 0 31 3 31 30 0 25 -4 30 -24 30
-15 0 -26 -7 -28 -17 -2 -10 -4 6 -4 35 0 50 1 52 28 52 24 0 28 4 28 30 0 25
-4 30 -24 30 -15 0 -26 -7 -28 -17 -2 -10 -4 6 -5 35 -1 51 0 52 28 52 26 0
29 4 29 30 0 25 -4 30 -24 30 -15 0 -26 -7 -28 -17 -2 -10 -4 3 -4 30 -1 45 0
47 28 47 25 0 28 3 28 35 0 30 -3 35 -24 35 -15 0 -26 -7 -28 -17 -2 -10 -4 3
-4 30 -1 45 0 47 28 47 25 0 28 3 28 35 0 31 -3 35 -25 35 -14 0 -25 3 -25 8
0 4 -3 17 -6 30 -6 19 -3 22 25 22 28 0 31 3 31 30 0 25 -4 30 -24 30 -15 0
-26 -7 -28 -17 -2 -10 -4 6 -4 35 0 50 1 52 28 52 24 0 28 4 28 30 0 25 -4 30
-24 30 -15 0 -26 -7 -28 -17 -2 -10 -4 6 -5 35 -1 51 0 52 28 52 26 0 29 4 29
30 0 25 -4 30 -24 30 -15 0 -26 -7 -28 -17 -2 -10 -4 3 -4 30 -1 45 0 47 28
47 25 0 28 3 28 35 0 30 -3 35 -24 35 -15 0 -26 -7 -28 -17 -2 -10 -4 3 -4 28
l-1 46 46 -1 c25 0 38 -2 29 -4z m-71 -594 c-3 -8 -6 -5 -6 6 -1 11 2 17 5 13
3 -3 4 -12 1 -19z m0 -640 c-3 -8 -6 -5 -6 6 -1 11 2 17 5 13 3 -3 4 -12 1
-19z m0 -640 c-3 -8 -6 -5 -6 6 -1 11 2 17 5 13 3 -3 4 -12 1 -19z m0 -640
c-3 -8 -6 -5 -6 6 -1 11 2 17 5 13 3 -3 4 -12 1 -19z m0 -640 c-3 -8 -6 -5 -6
6 -1 11 2 17 5 13 3 -3 4 -12 1 -19z m0 -640 c-3 -8 -6 -5 -6 6 -1 11 2 17 5
13 3 -3 4 -12 1 -19z m2743 -177 c0 -5 -6 -12 -12 -15 -10 -5 -10 -7 0 -12 22
-10 12 -24 -18 -24 -23 0 -30 -5 -30 -19 0 -11 8 -21 18 -23 9 -2 -7 -4 -35
-5 -49 -1 -53 1 -53 22 0 13 -6 25 -12 28 -8 2 -9 8 -4 13 5 5 11 4 13 -3 3
-7 20 -13 39 -13 34 0 38 6 35 43 -2 13 5 17 28 17 17 0 31 -4 31 -9z m130 0
c0 -5 -6 -12 -12 -15 -10 -5 -10 -7 0 -12 22 -10 12 -24 -18 -24 -27 0 -30 3
-30 30 0 27 3 30 30 30 17 0 30 -4 30 -9z m-220 -21 c0 -5 -7 -10 -16 -10 -8
0 -12 5 -9 10 3 6 10 10 16 10 5 0 9 -4 9 -10z m130 0 c0 -5 -7 -10 -15 -10
-8 0 -15 5 -15 10 0 6 7 10 15 10 8 0 15 -4 15 -10z m130 0 c0 -5 -7 -10 -15
-10 -8 0 -15 5 -15 10 0 6 7 10 15 10 8 0 15 -4 15 -10z m-100 -49 c0 -11 8
-21 18 -23 9 -2 -7 -4 -35 -4 -49 0 -53 2 -53 23 0 20 5 23 35 23 28 0 35 -4
35 -19z m120 4 c0 -7 7 -18 16 -23 11 -6 2 -9 -30 -9 -42 0 -46 3 -46 24 0 19
5 23 30 23 20 0 30 -5 30 -15z m-343 -17 c-3 -8 -6 -5 -6 6 -1 11 2 17 5 13 3
-3 4 -12 1 -19z m1043 -8 c0 -5 -6 -10 -14 -10 -8 0 -18 5 -21 10 -3 6 3 10
14 10 12 0 21 -4 21 -10z m-3463 -6 c-3 -3 -12 -4 -19 -1 -8 3 -5 6 6 6 11 1
17 -2 13 -5z m130 0 c-3 -3 -12 -4 -19 -1 -8 3 -5 6 6 6 11 1 17 -2 13 -5z
m130 0 c-3 -3 -12 -4 -19 -1 -8 3 -5 6 6 6 11 1 17 -2 13 -5z m130 0 c-3 -3
-12 -4 -19 -1 -8 3 -5 6 6 6 11 1 17 -2 13 -5z m250 0 c-3 -3 -12 -4 -19 -1
-8 3 -5 6 6 6 11 1 17 -2 13 -5z m130 0 c-3 -3 -12 -4 -19 -1 -8 3 -5 6 6 6
11 1 17 -2 13 -5z m130 0 c-3 -3 -12 -4 -19 -1 -8 3 -5 6 6 6 11 1 17 -2 13
-5z m130 0 c-3 -3 -12 -4 -19 -1 -8 3 -5 6 6 6 11 1 17 -2 13 -5z m250 0 c-3
-3 -12 -4 -19 -1 -8 3 -5 6 6 6 11 1 17 -2 13 -5z m130 0 c-3 -3 -12 -4 -19
-1 -8 3 -5 6 6 6 11 1 17 -2 13 -5z m130 0 c-3 -3 -12 -4 -19 -1 -8 3 -5 6 6
6 11 1 17 -2 13 -5z m130 0 c-3 -3 -12 -4 -19 -1 -8 3 -5 6 6 6 11 1 17 -2 13
-5z m250 0 c-3 -3 -12 -4 -19 -1 -8 3 -5 6 6 6 11 1 17 -2 13 -5z m130 0 c-3
-3 -12 -4 -19 -1 -8 3 -5 6 6 6 11 1 17 -2 13 -5z m130 0 c-3 -3 -12 -4 -19
-1 -8 3 -5 6 6 6 11 1 17 -2 13 -5z m130 0 c-3 -3 -12 -4 -19 -1 -8 3 -5 6 6
6 11 1 17 -2 13 -5z m640 0 c-3 -3 -12 -4 -19 -1 -8 3 -5 6 6 6 11 1 17 -2 13
-5z m250 0 c-3 -3 -12 -4 -19 -1 -8 3 -5 6 6 6 11 1 17 -2 13 -5z m130 0 c-3
-3 -12 -4 -19 -1 -8 3 -5 6 6 6 11 1 17 -2 13 -5z m260 0 c-3 -3 -12 -4 -19
-1 -8 3 -5 6 6 6 11 1 17 -2 13 -5z m250 0 c-3 -3 -12 -4 -19 -1 -8 3 -5 6 6
6 11 1 17 -2 13 -5z m130 0 c-3 -3 -12 -4 -19 -1 -8 3 -5 6 6 6 11 1 17 -2 13
-5z m130 0 c-3 -3 -12 -4 -19 -1 -8 3 -5 6 6 6 11 1 17 -2 13 -5z m130 0 c-3
-3 -12 -4 -19 -1 -8 3 -5 6 6 6 11 1 17 -2 13 -5z"/>
<path d="M930 5345 c0 -33 -2 -35 -35 -35 -32 0 -35 -2 -35 -30 0 -28 3 -30
35 -30 32 0 35 -2 35 -30 0 -28 -3 -30 -35 -30 -33 0 -35 -2 -35 -35 0 -33 2
-35 35 -35 32 0 35 -2 35 -30 0 -28 -3 -30 -35 -30 -33 0 -35 -2 -35 -35 0
-33 2 -35 35 -35 32 0 35 -2 35 -30 0 -28 -3 -30 -35 -30 -32 0 -35 -2 -35
-30 0 -28 3 -30 35 -30 33 0 35 -2 35 -35 0 -33 -2 -35 -35 -35 -32 0 -35 -2
-35 -30 0 -28 3 -30 35 -30 33 0 35 -2 35 -35 0 -33 -2 -35 -35 -35 -32 0 -35
-2 -35 -30 0 -28 3 -30 35 -30 32 0 35 -2 35 -30 0 -28 -3 -30 -35 -30 -33 0
-35 -2 -35 -35 0 -33 2 -35 35 -35 32 0 35 -2 35 -30 0 -28 -3 -30 -35 -30
-33 0 -35 -2 -35 -35 0 -33 2 -35 35 -35 32 0 35 -2 35 -30 0 -28 -3 -30 -35
-30 -32 0 -35 -2 -35 -30 0 -28 3 -30 35 -30 33 0 35 -2 35 -35 0 -33 -2 -35
-35 -35 -32 0 -35 -2 -35 -30 0 -28 3 -30 35 -30 33 0 35 -2 35 -35 0 -33 -2
-35 -35 -35 -32 0 -35 -2 -35 -30 0 -28 3 -30 35 -30 32 0 35 -2 35 -30 0 -28
-3 -30 -35 -30 -33 0 -35 -2 -35 -35 0 -33 2 -35 35 -35 32 0 35 -2 35 -30 0
-28 -3 -30 -35 -30 -33 0 -35 -2 -35 -35 0 -33 2 -35 35 -35 32 0 35 -2 35
-30 0 -28 -3 -30 -35 -30 -32 0 -35 -2 -35 -30 0 -28 3 -30 35 -30 33 0 35 -2
35 -35 0 -33 -2 -35 -35 -35 -32 0 -35 -2 -35 -30 0 -28 3 -30 35 -30 33 0 35
-2 35 -35 0 -33 -2 -35 -35 -35 -32 0 -35 -2 -35 -30 0 -28 3 -30 35 -30 32 0
35 -2 35 -30 0 -28 -3 -30 -35 -30 -33 0 -35 -2 -35 -35 0 -33 2 -35 35 -35
32 0 35 -2 35 -30 0 -28 -3 -30 -35 -30 -33 0 -35 -2 -35 -35 0 -33 2 -35 35
-35 32 0 35 -2 35 -30 0 -28 -3 -30 -35 -30 -32 0 -35 -2 -35 -30 0 -28 3 -30
35 -30 33 0 35 -2 35 -35 0 -33 -2 -35 -35 -35 -32 0 -35 -2 -35 -30 0 -28 3
-30 35 -30 33 0 35 -2 35 -35 0 -33 -2 -35 -35 -35 -32 0 -35 -2 -35 -30 0
-28 3 -30 35 -30 32 0 35 -2 35 -30 0 -28 -3 -30 -35 -30 -33 0 -35 -2 -35
-35 0 -33 2 -35 35 -35 32 0 35 -2 35 -30 0 -28 -3 -30 -35 -30 -33 0 -35 -2
-35 -35 0 -33 2 -35 35 -35 32 0 35 -2 35 -30 0 -28 -3 -30 -35 -30 -32 0 -35
-2 -35 -30 0 -28 3 -30 35 -30 33 0 35 -2 35 -35 0 -33 -2 -35 -35 -35 -32 0
-35 -2 -35 -30 0 -28 3 -30 35 -30 33 0 35 -2 35 -35 0 -33 -2 -35 -35 -35
-32 0 -35 -2 -35 -30 0 -28 3 -30 35 -30 32 0 35 -2 35 -30 0 -28 -3 -30 -35
-30 -33 0 -35 -2 -35 -35 0 -33 2 -35 35 -35 32 0 35 -2 35 -30 0 -28 -3 -30
-35 -30 -33 0 -35 -2 -35 -35 0 -33 2 -35 35 -35 32 0 35 -2 35 -30 0 -28 -3
-30 -35 -30 -32 0 -35 -2 -35 -30 0 -28 3 -30 35 -30 33 0 35 -2 35 -35 0 -33
-2 -35 -35 -35 -32 0 -35 -2 -35 -30 0 -28 3 -30 35 -30 33 0 35 -2 35 -35 0
-33 -2 -35 -35 -35 -32 0 -35 -2 -35 -30 0 -28 3 -30 35 -30 32 0 35 2 35 30
0 27 3 30 30 30 27 0 30 -3 30 -30 0 -28 3 -30 35 -30 32 0 35 2 35 30 0 27 3
30 30 30 27 0 30 -3 30 -30 0 -27 3 -30 30 -30 27 0 30 3 30 30 0 28 3 30 35
30 32 0 35 -2 35 -30 0 -27 3 -30 30 -30 27 0 30 3 30 30 0 28 3 30 35 30 32
0 35 -2 35 -30 0 -27 3 -30 30 -30 27 0 30 3 30 30 0 27 3 30 30 30 27 0 30
-3 30 -30 0 -28 3 -30 35 -30 32 0 35 2 35 30 0 27 3 30 30 30 27 0 30 -3 30
-30 0 -28 3 -30 35 -30 32 0 35 2 35 30 0 27 3 30 30 30 27 0 30 -3 30 -30 0
-27 3 -30 30 -30 27 0 30 3 30 30 0 28 3 30 35 30 32 0 35 -2 35 -30 0 -27 3
-30 30 -30 27 0 30 3 30 30 0 28 3 30 35 30 32 0 35 -2 35 -30 0 -27 3 -30 30
-30 27 0 30 3 30 30 0 27 3 30 30 30 27 0 30 -3 30 -30 0 -28 3 -30 35 -30 32
0 35 2 35 30 0 27 3 30 30 30 27 0 30 -3 30 -30 0 -28 3 -30 35 -30 32 0 35 2
35 30 0 27 3 30 30 30 27 0 30 -3 30 -30 0 -27 3 -30 30 -30 27 0 30 3 30 30
0 28 3 30 35 30 32 0 35 -2 35 -30 0 -27 3 -30 30 -30 27 0 30 3 30 30 0 28 3
30 35 30 32 0 35 -2 35 -30 0 -27 3 -30 30 -30 27 0 30 3 30 30 0 27 3 30 30
30 27 0 30 -3 30 -30 0 -28 3 -30 35 -30 32 0 35 2 35 30 0 27 3 30 30 30 27
0 30 -3 30 -30 0 -28 3 -30 35 -30 32 0 35 2 35 30 0 23 5 30 19 30 30 0 32
13 5 33 -24 18 -24 18 -24 -8 0 -22 -4 -25 -35 -25 -33 0 -35 2 -35 35 0 30 4
35 23 35 21 1 21 1 3 12 -15 8 -21 8 -24 0 -2 -7 -17 -12 -34 -12 -28 0 -30 2
-26 33 3 32 3 32 -34 29 -35 -4 -37 -3 -40 30 -2 27 -7 34 -30 36 -21 3 -27 9
-30 30 -2 21 -9 28 -30 30 -19 2 -28 9 -28 21 0 23 -19 41 -45 41 -11 0 -25
10 -30 22 -6 11 -20 28 -32 36 -22 14 -23 13 -23 -22 0 -35 -1 -36 -35 -36
-33 0 -35 2 -35 35 0 32 2 35 30 35 34 0 38 7 13 26 -26 19 -43 17 -43 -6 0
-16 -7 -20 -30 -20 -27 0 -30 3 -30 30 0 23 4 30 20 30 11 0 20 3 20 8 0 4 -9
13 -20 20 -18 11 -20 10 -20 -8 0 -16 -7 -20 -30 -20 -27 0 -30 3 -30 34 0 19
5 36 12 38 9 3 9 6 0 12 -7 4 -12 2 -12 -3 0 -6 -16 -11 -36 -11 -35 0 -36 1
-32 33 3 31 2 32 -29 29 -31 -4 -33 -2 -33 27 0 29 -3 31 -35 31 -33 0 -35 2
-35 35 0 32 -2 35 -30 35 -27 0 -30 3 -30 30 0 27 -3 30 -30 30 -25 0 -30 4
-30 23 0 29 -18 47 -47 47 -19 0 -23 5 -23 30 0 27 -3 30 -30 30 -27 0 -30 3
-30 30 0 28 -3 30 -35 30 -33 0 -35 2 -35 35 0 33 -2 35 -31 35 -31 0 -32 0
-26 42 2 24 3 37 0 31 -3 -7 -18 -13 -34 -13 -26 0 -29 3 -29 34 0 19 5 36 12
38 9 3 9 6 0 12 -7 4 -12 2 -12 -3 0 -6 -16 -11 -35 -11 -32 0 -35 2 -35 30 0
20 5 30 15 30 8 0 15 4 15 9 0 5 -7 14 -15 21 -13 10 -15 9 -15 -9 0 -17 -6
-21 -30 -21 -27 0 -30 3 -30 30 0 23 4 30 20 30 25 0 25 11 0 41 l-19 24 -1
-32 c0 -31 -2 -33 -35 -33 -33 0 -35 2 -35 35 0 32 2 35 30 35 17 0 30 3 30 8
-1 12 -38 52 -49 52 -6 0 -11 9 -11 20 0 13 -12 28 -30 38 -18 10 -30 27 -32
42 -2 19 -10 26 -29 28 -21 2 -28 10 -33 33 -5 24 -10 29 -36 29 -28 0 -30 3
-30 35 0 32 -2 35 -30 35 -26 0 -30 3 -30 29 0 16 5 31 12 33 8 3 8 9 0 24
-11 18 -11 18 -12 -3 0 -19 -5 -23 -35 -23 -33 0 -35 2 -35 35 0 31 3 35 25
35 14 0 25 4 25 9 0 4 -11 20 -25 35 -14 15 -25 33 -25 40 0 18 -21 36 -43 36
-16 0 -19 6 -16 38 4 37 4 37 -28 34 -31 -4 -33 -2 -33 27 0 25 4 31 21 31 17
0 19 4 13 23 -4 12 -15 33 -25 46 -11 13 -19 32 -19 42 0 14 -7 19 -30 19 -27
0 -30 3 -30 30 0 21 5 30 16 30 13 0 15 7 10 33 -4 17 -11 34 -16 35 -6 2 -10
17 -10 33 0 26 -4 29 -30 29 -28 0 -30 3 -30 35 0 31 3 35 25 35 15 0 25 6 25
14 0 28 -12 46 -31 46 -28 0 -27 56 1 63 14 3 20 14 20 32 0 18 -6 29 -20 32
-14 4 -20 14 -20 33 0 19 6 29 20 33 14 3 20 14 20 32 0 18 -6 29 -20 32 -14
4 -20 14 -20 34 0 24 4 29 24 29 23 0 36 16 36 46 0 9 -11 14 -30 14 -28 0
-30 3 -30 35 0 32 2 35 30 35 26 0 30 -4 31 -27 l0 -28 12 24 c9 19 9 25 -1
29 -6 2 -12 17 -12 33 0 22 5 29 20 29 20 0 40 27 40 54 0 11 -9 16 -30 16
-27 0 -30 3 -30 30 0 28 3 30 35 30 31 0 35 -3 35 -27 l1 -28 14 25 c12 22 12
25 -1 28 -8 2 -14 15 -14 32 0 24 5 29 28 32 22 2 28 8 30 35 3 26 8 32 30 35
20 2 28 9 30 28 2 18 12 29 32 37 17 6 32 21 35 35 3 13 16 28 28 33 12 6 26
20 32 32 5 12 20 25 32 28 13 3 29 16 35 30 6 13 24 28 39 34 22 7 29 16 29
35 0 22 5 26 30 26 27 0 30 3 30 30 0 27 3 30 34 30 23 0 36 -5 38 -16 3 -13
5 -13 23 0 20 15 20 15 -2 16 -19 0 -23 5 -23 35 0 32 2 35 30 35 27 0 30 -3
30 -31 0 -29 2 -31 27 -24 29 7 43 21 43 43 0 7 13 12 30 12 27 0 30 3 30 30
0 27 3 30 30 30 25 0 30 -4 30 -25 0 -14 6 -28 14 -31 22 -8 56 14 56 36 0 29
56 28 63 0 3 -12 14 -20 26 -20 11 0 26 9 33 20 15 24 68 28 68 5 0 -10 10
-15 30 -15 20 0 30 5 30 15 0 10 11 15 35 15 28 0 35 -4 35 -20 0 -16 7 -20
30 -20 23 0 30 4 30 20 0 16 7 20 35 20 32 0 35 -2 35 -30 0 -27 3 -30 30 -30
27 0 30 3 30 30 0 27 3 30 30 30 27 0 30 -3 30 -30 0 -25 -4 -30 -25 -30 -14
0 -25 -4 -25 -10 0 -5 4 -10 9 -10 5 0 16 -3 25 -6 11 -4 16 -1 16 10 0 12 10
16 35 16 32 0 35 -2 35 -30 0 -24 5 -31 28 -36 15 -4 38 -15 51 -26 31 -24 51
-23 51 2 0 16 7 20 30 20 26 0 30 -3 30 -29 0 -20 -6 -31 -17 -33 -15 -3 -15
-4 0 -17 15 -12 17 -11 17 3 0 11 9 16 29 16 26 0 30 -4 33 -32 3 -29 7 -33
36 -36 28 -3 32 -7 32 -33 0 -26 3 -29 30 -29 27 0 30 -3 30 -30 0 -28 3 -30
35 -30 33 0 35 -2 35 -35 0 -32 2 -35 30 -35 26 0 30 -3 30 -29 0 -16 -5 -31
-12 -33 -9 -3 -9 -6 0 -12 7 -4 12 -2 12 3 0 6 14 11 30 11 28 0 30 -3 30 -35
0 -28 -4 -35 -20 -35 -20 0 -20 -1 -3 -32 l18 -33 3 33 c3 29 6 32 37 32 18 0
35 -6 38 -12 2 -7 2 8 -1 35 l-5 47 32 0 c28 0 31 3 31 29 0 25 5 30 27 33 21
2 29 10 37 36 5 19 15 32 25 32 22 0 41 19 41 41 0 12 9 19 28 21 21 2 28 9
30 29 2 19 11 28 35 35 25 7 33 15 35 37 3 23 8 27 33 27 26 0 29 3 29 30 0
27 3 30 34 30 22 0 36 -5 38 -14 3 -13 6 -13 28 -1 l25 14 -27 1 c-25 0 -28 4
-28 35 0 32 2 35 30 35 28 0 30 -3 30 -34 0 -34 0 -35 30 -25 22 8 30 17 30
35 0 21 5 24 35 24 19 0 35 -4 35 -10 0 -5 7 -10 15 -10 8 0 15 5 15 10 0 6
-7 10 -15 10 -10 0 -15 10 -15 30 0 27 3 30 30 30 27 0 30 -3 30 -30 0 -21 5
-30 16 -30 27 0 54 20 54 40 0 16 7 20 30 20 23 0 30 -4 30 -20 0 -16 7 -20
30 -20 23 0 30 4 30 20 0 16 7 20 35 20 24 0 35 -5 35 -15 0 -10 10 -15 30
-15 20 0 30 5 30 15 0 10 11 15 35 15 28 0 35 -4 35 -20 0 -16 7 -20 30 -20
23 0 30 4 30 20 0 15 7 20 29 20 24 0 30 -5 35 -30 5 -25 10 -30 36 -30 27 0
30 3 30 30 0 27 3 30 30 30 27 0 30 -3 30 -30 0 -23 -4 -30 -20 -30 -26 0 -26
-16 0 -23 13 -3 20 0 20 9 0 9 12 14 35 14 32 0 35 -2 35 -30 0 -17 5 -30 13
-30 6 0 33 -11 60 -25 46 -25 47 -25 47 -5 0 16 7 20 35 20 32 0 35 -2 35 -29
0 -16 -6 -31 -13 -34 -6 -3 7 -2 31 0 41 6 42 5 42 -25 0 -30 14 -42 51 -42
14 0 19 -7 19 -30 0 -27 3 -30 29 -30 25 0 30 -4 33 -27 2 -22 9 -29 31 -31
18 -2 27 -9 27 -22 0 -36 12 -50 41 -50 26 0 29 -4 29 -30 0 -27 3 -30 30 -30
27 0 30 -3 30 -34 0 -22 -5 -36 -14 -38 -13 -3 -13 -6 0 -22 14 -19 14 -19 14
2 0 18 6 22 35 22 32 0 35 -2 35 -30 0 -27 -3 -30 -30 -30 -34 0 -34 0 -18
-35 6 -14 19 -25 30 -25 14 0 18 -8 18 -35 0 -32 2 -35 30 -35 28 0 30 3 30
35 0 32 2 35 30 35 27 0 30 3 30 30 0 27 -3 30 -30 30 -27 0 -30 3 -30 30 0
27 3 30 30 30 28 0 30 3 30 35 0 32 -2 35 -30 35 -27 0 -30 3 -30 30 0 27 -3
30 -30 30 -28 0 -30 3 -30 35 0 32 2 35 30 35 27 0 30 3 30 30 0 27 3 30 30
30 27 0 30 3 30 30 0 27 -3 30 -30 30 -28 0 -30 3 -30 35 0 32 -2 35 -30 35
-27 0 -30 3 -30 30 0 27 3 30 30 30 28 0 30 3 30 35 0 32 2 35 30 35 27 0 30
3 30 30 0 27 -3 30 -30 30 -27 0 -30 3 -30 30 0 27 3 30 30 30 28 0 30 3 30
35 0 32 -2 35 -30 35 -28 0 -30 -3 -30 -35 0 -32 -2 -35 -30 -35 -28 0 -30 3
-30 35 0 33 -2 35 -35 35 -33 0 -35 -2 -35 -35 0 -32 -2 -35 -30 -35 -28 0
-30 3 -30 35 0 33 -2 35 -35 35 -33 0 -35 -2 -35 -35 0 -32 -2 -35 -30 -35
-28 0 -30 3 -30 35 0 32 -2 35 -30 35 -28 0 -30 -3 -30 -35 0 -33 -2 -35 -35
-35 -33 0 -35 2 -35 35 0 32 -2 35 -30 35 -28 0 -30 -3 -30 -35 0 -33 -2 -35
-35 -35 -33 0 -35 2 -35 35 0 32 -2 35 -30 35 -28 0 -30 -3 -30 -35 0 -32 -2
-35 -30 -35 -28 0 -30 3 -30 35 0 33 -2 35 -35 35 -33 0 -35 -2 -35 -35 0 -32
-2 -35 -30 -35 -28 0 -30 3 -30 35 0 33 -2 35 -35 35 -33 0 -35 -2 -35 -35 0
-32 -2 -35 -30 -35 -28 0 -30 3 -30 35 0 32 -2 35 -30 35 -28 0 -30 -3 -30
-35 0 -33 -2 -35 -35 -35 -33 0 -35 2 -35 35 0 32 -2 35 -30 35 -28 0 -30 -3
-30 -35 0 -33 -2 -35 -35 -35 -33 0 -35 2 -35 35 0 32 -2 35 -30 35 -28 0 -30
-3 -30 -35 0 -32 -2 -35 -30 -35 -28 0 -30 3 -30 35 0 33 -2 35 -35 35 -33 0
-35 -2 -35 -35 0 -32 -2 -35 -30 -35 -28 0 -30 3 -30 35 0 33 -2 35 -35 35
-33 0 -35 -2 -35 -35 0 -32 -2 -35 -30 -35 -28 0 -30 3 -30 35 0 32 -2 35 -30
35 -28 0 -30 -3 -30 -35 0 -33 -2 -35 -35 -35 -33 0 -35 2 -35 35 0 32 -2 35
-30 35 -28 0 -30 -3 -30 -35 0 -33 -2 -35 -35 -35 -33 0 -35 2 -35 35 0 32 -2
35 -30 35 -28 0 -30 -3 -30 -35 0 -32 -2 -35 -30 -35 -28 0 -30 3 -30 35 0 33
-2 35 -35 35 -33 0 -35 -2 -35 -35 0 -32 -2 -35 -30 -35 -28 0 -30 3 -30 35 0
33 -2 35 -35 35 -33 0 -35 -2 -35 -35 0 -32 -2 -35 -30 -35 -28 0 -30 3 -30
35 0 32 -2 35 -30 35 -28 0 -30 -3 -30 -35 0 -33 -2 -35 -35 -35 -33 0 -35 2
-35 35 0 32 -2 35 -30 35 -28 0 -30 -3 -30 -35 0 -33 -2 -35 -35 -35 -33 0
-35 2 -35 35 0 32 -2 35 -30 35 -28 0 -30 -3 -30 -35 0 -32 -2 -35 -30 -35
-28 0 -30 3 -30 35 0 33 -2 35 -35 35 -33 0 -35 -2 -35 -35 0 -32 -2 -35 -30
-35 -28 0 -30 3 -30 35 0 33 -2 35 -35 35 -33 0 -35 -2 -35 -35 0 -32 -2 -35
-30 -35 -28 0 -30 3 -30 35 0 32 -2 35 -30 35 -28 0 -30 -3 -30 -35 0 -33 -2
-35 -35 -35 -33 0 -35 2 -35 35 0 32 -2 35 -30 35 -28 0 -30 -3 -30 -35 0 -33
-2 -35 -35 -35 -33 0 -35 2 -35 35 0 32 -2 35 -30 35 -28 0 -30 -3 -30 -35 0
-32 -2 -35 -30 -35 -28 0 -30 3 -30 35 0 33 -2 35 -35 35 -33 0 -35 -2 -35
-35 0 -32 -2 -35 -30 -35 -28 0 -30 3 -30 35 0 33 -2 35 -35 35 -33 0 -35 -2
-35 -35 0 -32 -2 -35 -30 -35 -28 0 -30 3 -30 35 0 32 -2 35 -30 35 -28 0 -30
-3 -30 -35 0 -33 -2 -35 -35 -35 -33 0 -35 2 -35 35 0 32 -2 35 -30 35 -28 0
-30 -3 -30 -35 0 -33 -2 -35 -35 -35 -33 0 -35 2 -35 35 0 32 -2 35 -30 35
-28 0 -30 -3 -30 -35 0 -32 -2 -35 -30 -35 -28 0 -30 3 -30 35 0 33 -2 35 -35
35 -33 0 -35 -2 -35 -35 0 -32 -2 -35 -30 -35 -28 0 -30 3 -30 35 0 33 -2 35
-35 35 -33 0 -35 -2 -35 -35 0 -32 -2 -35 -30 -35 -28 0 -30 3 -30 35 0 32 -2
35 -30 35 -28 0 -30 -3 -30 -35 0 -33 -2 -35 -35 -35 -33 0 -35 2 -35 35 0 32
-2 35 -30 35 -28 0 -30 -3 -30 -35z m60 -65 c0 -28 3 -30 35 -30 32 0 35 2 35
30 0 27 3 30 30 30 27 0 30 -3 30 -30 0 -27 3 -30 30 -30 27 0 30 3 30 30 0
28 3 30 35 30 32 0 35 -2 35 -30 0 -27 3 -30 30 -30 27 0 30 3 30 30 0 28 3
30 35 30 32 0 35 -2 35 -30 0 -27 3 -30 30 -30 27 0 30 3 30 30 0 27 3 30 30
30 27 0 30 -3 30 -30 0 -28 3 -30 35 -30 32 0 35 2 35 30 0 27 3 30 30 30 27
0 30 -3 30 -30 0 -28 3 -30 35 -30 32 0 35 2 35 30 0 27 3 30 30 30 27 0 30
-3 30 -30 0 -27 -3 -30 -30 -30 -27 0 -30 -3 -30 -30 0 -28 -3 -30 -35 -30
-32 0 -35 2 -35 30 0 27 -3 30 -30 30 -27 0 -30 -3 -30 -30 0 -28 -3 -30 -35
-30 -33 0 -35 -2 -35 -35 0 -32 -2 -35 -30 -35 -27 0 -30 -3 -30 -30 0 -27 -3
-30 -30 -30 -28 0 -30 -3 -30 -35 0 -33 -2 -35 -35 -35 -32 0 -35 -2 -35 -30
0 -27 -3 -30 -30 -30 -27 0 -30 -3 -30 -30 0 -28 -3 -30 -35 -30 -33 0 -35 -2
-35 -35 0 -32 -2 -35 -30 -35 -27 0 -30 -3 -30 -30 0 -27 -3 -30 -30 -30 -28
0 -30 -3 -30 -35 0 -33 -2 -35 -35 -35 -32 0 -35 -2 -35 -30 0 -27 -3 -30 -30
-30 -27 0 -30 3 -30 30 0 27 3 30 30 30 28 0 30 3 30 35 0 32 -2 35 -30 35
-27 0 -30 3 -30 30 0 27 3 30 30 30 28 0 30 3 30 35 0 32 -2 35 -30 35 -27 0
-30 3 -30 30 0 27 3 30 30 30 27 0 30 3 30 30 0 27 -3 30 -30 30 -28 0 -30 3
-30 35 0 32 2 35 30 35 27 0 30 3 30 30 0 27 -3 30 -30 30 -28 0 -30 3 -30 35
0 32 2 35 30 35 27 0 30 3 30 30 0 27 -3 30 -30 30 -27 0 -30 3 -30 30 0 27 3
30 30 30 27 0 30 -3 30 -30z m900 0 c0 -28 -3 -30 -35 -30 -32 0 -35 2 -35 30
0 28 3 30 35 30 32 0 35 -2 35 -30z m130 0 c0 -28 -3 -30 -35 -30 -32 0 -35 2
-35 30 0 28 3 30 35 30 32 0 35 -2 35 -30z m120 0 c0 -27 -3 -30 -30 -30 -27
0 -30 3 -30 30 0 27 3 30 30 30 27 0 30 -3 30 -30z m130 0 c0 -27 -3 -30 -30
-30 -27 0 -30 3 -30 30 0 27 3 30 30 30 27 0 30 -3 30 -30z m130 0 c0 -27 -3
-30 -30 -30 -27 0 -30 3 -30 30 0 27 3 30 30 30 27 0 30 -3 30 -30z m130 0 c0
-27 3 -30 30 -30 27 0 30 3 30 30 0 28 3 30 35 30 32 0 35 -2 35 -30 0 -27 3
-30 30 -30 27 0 30 3 30 30 0 27 3 30 30 30 27 0 30 -3 30 -30 0 -28 3 -30 35
-30 32 0 35 2 35 30 0 27 3 30 30 30 27 0 30 -3 30 -30 0 -28 3 -30 35 -30 32
0 35 2 35 30 0 27 3 30 30 30 27 0 30 -3 30 -30 0 -27 3 -30 30 -30 27 0 30 3
30 30 0 28 3 30 35 30 32 0 35 -2 35 -30 0 -27 3 -30 30 -30 27 0 30 3 30 30
0 28 3 30 35 30 32 0 35 -2 35 -30 0 -27 3 -30 30 -30 27 0 30 3 30 30 0 27 3
30 30 30 27 0 30 -3 30 -30 0 -28 3 -30 35 -30 32 0 35 2 35 30 0 27 3 30 30
30 27 0 30 -3 30 -30 0 -28 3 -30 35 -30 32 0 35 2 35 30 0 27 3 30 30 30 27
0 30 -3 30 -30 0 -27 3 -30 30 -30 27 0 30 3 30 30 0 28 3 30 35 30 32 0 35
-2 35 -30 0 -28 -3 -30 -35 -30 -32 0 -35 -2 -35 -30 0 -27 -3 -30 -30 -30
-27 0 -30 3 -30 30 0 27 -3 30 -30 30 -27 0 -30 -3 -30 -30 0 -28 -3 -30 -35
-30 -33 0 -35 -2 -35 -35 0 -32 -2 -35 -30 -35 -27 0 -30 -3 -30 -30 0 -28 -3
-30 -35 -30 -33 0 -35 -2 -35 -35 0 -32 -2 -35 -30 -35 -27 0 -30 -3 -30 -30
0 -27 -3 -30 -30 -30 -27 0 -30 -3 -30 -30 0 -28 -3 -30 -35 -30 -33 0 -35 -2
-35 -35 0 -32 -2 -35 -30 -35 -27 0 -30 -3 -30 -30 0 -28 -3 -30 -35 -30 -32
0 -35 2 -35 30 0 27 -3 30 -30 30 -28 0 -30 3 -30 35 0 32 -2 35 -30 35 -27 0
-30 3 -30 30 0 28 -3 30 -35 30 -32 0 -35 2 -35 30 0 27 -3 30 -30 30 -28 0
-30 3 -30 35 0 33 -2 35 -35 35 -32 0 -35 2 -35 30 0 27 -3 30 -30 30 -28 0
-30 3 -30 35 0 32 -2 35 -30 35 -28 0 -30 -3 -30 -35 0 -33 -2 -35 -35 -35
-33 0 -35 2 -35 35 0 32 -2 35 -30 35 -27 0 -30 3 -30 30 0 28 -3 30 -35 30
-32 0 -35 2 -35 30 0 28 3 30 35 30 32 0 35 -2 35 -30z m1410 0 c0 -28 -3 -30
-35 -30 -32 0 -35 2 -35 30 0 28 3 30 35 30 32 0 35 -2 35 -30z m120 0 c0 -27
-3 -30 -30 -30 -27 0 -30 3 -30 30 0 27 3 30 30 30 27 0 30 -3 30 -30z m130 0
c0 -27 -3 -30 -30 -30 -27 0 -30 3 -30 30 0 27 3 30 30 30 27 0 30 -3 30 -30z
m130 0 c0 -27 -3 -30 -30 -30 -27 0 -30 3 -30 30 0 27 3 30 30 30 27 0 30 -3
30 -30z m130 0 c0 -28 -3 -30 -35 -30 -32 0 -35 2 -35 30 0 28 3 30 35 30 32
0 35 -2 35 -30z m130 0 c0 -27 3 -30 30 -30 27 0 30 3 30 30 0 27 3 30 30 30
27 0 30 -3 30 -30 0 -28 3 -30 35 -30 32 0 35 2 35 30 0 27 3 30 30 30 27 0
30 -3 30 -30 0 -28 3 -30 35 -30 32 0 35 2 35 30 0 27 3 30 30 30 27 0 30 -3
30 -30 0 -27 3 -30 30 -30 27 0 30 3 30 30 0 28 3 30 35 30 32 0 35 -2 35 -30
0 -27 3 -30 30 -30 27 0 30 3 30 30 0 28 3 30 35 30 32 0 35 -2 35 -30 0 -27
3 -30 30 -30 27 0 30 -3 30 -30 0 -27 -3 -30 -30 -30 -28 0 -30 -3 -30 -35 0
-33 -2 -35 -35 -35 -32 0 -35 -2 -35 -30 0 -28 3 -30 35 -30 33 0 35 -2 35
-35 0 -32 2 -35 30 -35 27 0 30 -3 30 -30 0 -27 -3 -30 -30 -30 -27 0 -30 -3
-30 -30 0 -28 -3 -30 -35 -30 -33 0 -35 -2 -35 -35 0 -33 2 -35 35 -35 32 0
35 -2 35 -30 0 -27 3 -30 30 -30 28 0 30 -3 30 -35 0 -32 -2 -35 -30 -35 -28
0 -30 3 -30 35 0 33 -2 35 -35 35 -32 0 -35 2 -35 30 0 27 -3 30 -30 30 -28 0
-30 3 -30 35 0 33 -2 35 -35 35 -32 0 -35 2 -35 30 0 27 -3 30 -30 30 -27 0
-30 3 -30 30 0 27 -3 30 -30 30 -28 0 -30 3 -30 35 0 33 -2 35 -35 35 -32 0
-35 2 -35 30 0 27 -3 30 -30 30 -28 0 -30 3 -30 35 0 33 -2 35 -35 35 -33 0
-35 -2 -35 -35 0 -32 -2 -35 -30 -35 -28 0 -30 3 -30 35 0 32 -2 35 -30 35
-27 0 -30 3 -30 30 0 28 -3 30 -35 30 -32 0 -35 2 -35 30 0 28 3 30 35 30 32
0 35 -2 35 -30z m700 -700 c0 -27 -3 -30 -30 -30 -27 0 -30 3 -30 30 0 27 3
30 30 30 27 0 30 -3 30 -30z m-4290 -65 c0 -32 -2 -35 -30 -35 -28 0 -30 3
-30 35 0 32 2 35 30 35 28 0 30 -3 30 -35z m0 -770 c0 -32 -2 -35 -30 -35 -28
0 -30 3 -30 35 0 32 2 35 30 35 28 0 30 -3 30 -35z m0 -125 c0 -28 3 -30 35
-30 33 0 35 -2 35 -35 0 -33 -2 -35 -35 -35 -32 0 -35 -2 -35 -30 0 -28 3 -30
35 -30 33 0 35 -2 35 -35 0 -32 2 -35 30 -35 27 0 30 -3 30 -30 0 -27 3 -30
30 -30 27 0 30 -3 30 -30 0 -27 -3 -30 -30 -30 -28 0 -30 -3 -30 -35 0 -32 2
-35 30 -35 27 0 30 -3 30 -30 0 -28 3 -30 35 -30 33 0 35 -2 35 -35 0 -32 2
-35 30 -35 27 0 30 -3 30 -30 0 -28 3 -30 35 -30 32 0 35 -2 35 -30 0 -27 3
-30 30 -30 28 0 30 -3 30 -35 0 -32 2 -35 30 -35 27 0 30 -3 30 -30 0 -27 -3
-30 -30 -30 -28 0 -30 -3 -30 -35 0 -32 2 -35 30 -35 27 0 30 -3 30 -30 0 -28
3 -30 35 -30 32 0 35 -2 35 -30 0 -27 3 -30 30 -30 28 0 30 -3 30 -35 0 -33 2
-35 35 -35 32 0 35 -2 35 -30 0 -27 3 -30 30 -30 28 0 30 -3 30 -35 0 -32 2
-35 30 -35 27 0 30 -3 30 -30 0 -28 3 -30 35 -30 32 0 35 -2 35 -30 0 -27 3
-30 30 -30 28 0 30 -3 30 -35 0 -33 2 -35 35 -35 32 0 35 -2 35 -30 0 -27 3
-30 30 -30 28 0 30 -3 30 -35 0 -32 2 -35 30 -35 27 0 30 -3 30 -30 0 -28 3
-30 35 -30 32 0 35 -2 35 -30 0 -27 3 -30 30 -30 28 0 30 -3 30 -35 0 -33 2
-35 35 -35 32 0 35 -2 35 -30 0 -27 3 -30 30 -30 28 0 30 -3 30 -35 0 -32 2
-35 30 -35 27 0 30 -3 30 -30 0 -28 3 -30 35 -30 32 0 35 2 35 30 0 27 3 30
30 30 27 0 30 -3 30 -30 0 -28 3 -30 35 -30 32 0 35 -2 35 -30 0 -27 3 -30 30
-30 28 0 30 -3 30 -35 0 -32 2 -35 30 -35 27 0 30 -3 30 -30 0 -28 3 -30 35
-30 33 0 35 -2 35 -35 0 -33 -2 -35 -35 -35 -33 0 -35 2 -35 35 0 32 -2 35
-30 35 -28 0 -30 -3 -30 -35 0 -32 -2 -35 -30 -35 -28 0 -30 3 -30 35 0 33 -2
35 -35 35 -33 0 -35 -2 -35 -35 0 -32 -2 -35 -30 -35 -28 0 -30 3 -30 35 0 33
-2 35 -35 35 -33 0 -35 -2 -35 -35 0 -32 -2 -35 -30 -35 -28 0 -30 3 -30 35 0
32 -2 35 -30 35 -28 0 -30 -3 -30 -35 0 -33 -2 -35 -35 -35 -33 0 -35 2 -35
35 0 32 -2 35 -30 35 -28 0 -30 -3 -30 -35 0 -33 -2 -35 -35 -35 -33 0 -35 2
-35 35 0 32 -2 35 -30 35 -28 0 -30 -3 -30 -35 0 -32 -2 -35 -30 -35 -28 0
-30 3 -30 35 0 33 -2 35 -35 35 -33 0 -35 -2 -35 -35 0 -32 -2 -35 -30 -35
-28 0 -30 3 -30 35 0 33 -2 35 -35 35 -33 0 -35 -2 -35 -35 0 -32 -2 -35 -30
-35 -28 0 -30 3 -30 35 0 32 -2 35 -30 35 -28 0 -30 -3 -30 -35 0 -33 -2 -35
-35 -35 -33 0 -35 2 -35 35 0 32 -2 35 -30 35 -28 0 -30 -3 -30 -35 0 -33 -2
-35 -35 -35 -33 0 -35 2 -35 35 0 32 -2 35 -30 35 -28 0 -30 -3 -30 -35 0 -32
-2 -35 -30 -35 -28 0 -30 3 -30 35 0 33 -2 35 -35 35 -33 0 -35 -2 -35 -35 0
-32 -2 -35 -30 -35 -28 0 -30 3 -30 35 0 33 -2 35 -35 35 -33 0 -35 -2 -35
-35 0 -32 -2 -35 -30 -35 -28 0 -30 3 -30 35 0 32 -2 35 -30 35 -28 0 -30 -3
-30 -35 0 -33 -2 -35 -35 -35 -33 0 -35 2 -35 35 0 32 -2 35 -30 35 -27 0 -30
3 -30 30 0 27 3 30 30 30 28 0 30 3 30 35 0 32 -2 35 -30 35 -27 0 -30 3 -30
30 0 27 3 30 30 30 27 0 30 3 30 30 0 27 -3 30 -30 30 -28 0 -30 3 -30 35 0
32 2 35 30 35 27 0 30 3 30 30 0 27 -3 30 -30 30 -28 0 -30 3 -30 35 0 32 2
35 30 35 27 0 30 3 30 30 0 27 -3 30 -30 30 -27 0 -30 3 -30 30 0 27 3 30 30
30 28 0 30 3 30 35 0 32 -2 35 -30 35 -27 0 -30 3 -30 30 0 27 3 30 30 30 28
0 30 3 30 35 0 32 -2 35 -30 35 -27 0 -30 3 -30 30 0 27 3 30 30 30 27 0 30 3
30 30 0 27 -3 30 -30 30 -28 0 -30 3 -30 35 0 32 2 35 30 35 27 0 30 3 30 30
0 27 -3 30 -30 30 -28 0 -30 3 -30 35 0 32 2 35 30 35 27 0 30 3 30 30 0 27
-3 30 -30 30 -27 0 -30 3 -30 30 0 27 3 30 30 30 28 0 30 3 30 35 0 32 -2 35
-30 35 -27 0 -30 3 -30 30 0 27 3 30 30 30 28 0 30 3 30 35 0 32 -2 35 -30 35
-27 0 -30 3 -30 30 0 27 3 30 30 30 27 0 30 3 30 30 0 27 -3 30 -30 30 -28 0
-30 3 -30 35 0 32 2 35 30 35 27 0 30 3 30 30 0 27 -3 30 -30 30 -28 0 -30 3
-30 35 0 32 2 35 30 35 27 0 30 3 30 30 0 27 -3 30 -30 30 -27 0 -30 3 -30 30
0 27 3 30 30 30 28 0 30 3 30 35 0 32 -2 35 -30 35 -27 0 -30 3 -30 30 0 27 3
30 30 30 28 0 30 3 30 35 0 32 -2 35 -30 35 -27 0 -30 3 -30 30 0 27 3 30 30
30 27 0 30 -3 30 -30z"/>
<path d="M1060 5220 c0 -28 -3 -30 -35 -30 -33 0 -35 -2 -35 -35 0 -33 2 -35
35 -35 32 0 35 -2 35 -30 0 -28 -3 -30 -35 -30 -33 0 -35 -2 -35 -35 0 -33 2
-35 35 -35 32 0 35 -2 35 -30 0 -28 -3 -30 -35 -30 -32 0 -35 -2 -35 -30 0
-28 3 -30 35 -30 33 0 35 -2 35 -35 0 -33 -2 -35 -35 -35 -32 0 -35 -2 -35
-30 0 -28 3 -30 35 -30 32 0 35 2 35 30 0 27 3 30 30 30 28 0 30 3 30 35 0 32
2 35 30 35 27 0 30 3 30 30 0 28 3 30 35 30 32 0 35 2 35 30 0 27 3 30 30 30
28 0 30 3 30 35 0 33 2 35 35 35 32 0 35 2 35 30 0 27 3 30 30 30 28 0 30 3
30 35 0 32 2 35 30 35 27 0 30 3 30 30 0 27 -3 30 -30 30 -27 0 -30 -3 -30
-30 0 -27 -3 -30 -30 -30 -27 0 -30 3 -30 30 0 28 -3 30 -35 30 -32 0 -35 -2
-35 -30 0 -27 -3 -30 -30 -30 -27 0 -30 3 -30 30 0 28 -3 30 -35 30 -32 0 -35
-2 -35 -30 0 -27 -3 -30 -30 -30 -27 0 -30 3 -30 30 0 27 -3 30 -30 30 -27 0
-30 -3 -30 -30z m60 -65 c0 -32 2 -35 30 -35 28 0 30 3 30 35 0 33 2 35 35 35
33 0 35 -2 35 -35 0 -32 2 -35 30 -35 28 0 30 3 30 35 0 33 2 35 35 35 33 0
35 -2 35 -35 0 -33 -2 -35 -35 -35 -32 0 -35 -2 -35 -30 0 -27 -3 -30 -30 -30
-28 0 -30 -3 -30 -35 0 -33 -2 -35 -35 -35 -32 0 -35 -2 -35 -30 0 -27 -3 -30
-30 -30 -27 0 -30 -3 -30 -30 0 -27 -3 -30 -30 -30 -27 0 -30 3 -30 30 0 27 3
30 30 30 27 0 30 3 30 30 0 27 -3 30 -30 30 -28 0 -30 3 -30 35 0 32 2 35 30
35 27 0 30 3 30 30 0 27 -3 30 -30 30 -28 0 -30 3 -30 35 0 32 2 35 30 35 28
0 30 -3 30 -35z"/>
<path d="M1180 5090 c0 -27 -3 -30 -30 -30 -28 0 -30 -3 -30 -35 0 -32 2 -35
30 -35 28 0 30 3 30 35 0 33 2 35 35 35 32 0 35 2 35 30 0 28 -3 30 -35 30
-32 0 -35 -2 -35 -30z"/>
<path d="M2590 5220 c0 -28 3 -30 35 -30 32 0 35 2 35 30 0 28 -3 30 -35 30
-32 0 -35 -2 -35 -30z"/>
<path d="M2720 5220 c0 -27 3 -30 30 -30 28 0 30 -3 30 -35 0 -33 2 -35 35
-35 32 0 35 -2 35 -30 0 -27 3 -30 30 -30 28 0 30 -3 30 -35 0 -33 2 -35 35
-35 32 0 35 -2 35 -30 0 -27 3 -30 30 -30 27 0 30 -3 30 -30 0 -27 3 -30 30
-30 28 0 30 -3 30 -35 0 -33 2 -35 35 -35 33 0 35 2 35 35 0 32 2 35 30 35 27
0 30 3 30 30 0 28 3 30 35 30 32 0 35 2 35 30 0 27 3 30 30 30 28 0 30 3 30
35 0 32 2 35 30 35 27 0 30 3 30 30 0 28 3 30 35 30 33 0 35 2 35 35 0 32 2
35 30 35 27 0 30 3 30 30 0 27 -3 30 -30 30 -27 0 -30 -3 -30 -30 0 -28 -3
-30 -35 -30 -32 0 -35 2 -35 30 0 27 -3 30 -30 30 -27 0 -30 -3 -30 -30 0 -27
-3 -30 -30 -30 -27 0 -30 3 -30 30 0 28 -3 30 -35 30 -32 0 -35 -2 -35 -30 0
-27 -3 -30 -30 -30 -27 0 -30 3 -30 30 0 28 -3 30 -35 30 -32 0 -35 -2 -35
-30 0 -27 -3 -30 -30 -30 -27 0 -30 3 -30 30 0 27 -3 30 -30 30 -27 0 -30 -3
-30 -30 0 -28 -3 -30 -35 -30 -32 0 -35 2 -35 30 0 27 -3 30 -30 30 -27 0 -30
-3 -30 -30 0 -28 -3 -30 -35 -30 -32 0 -35 2 -35 30 0 27 -3 30 -30 30 -27 0
-30 -3 -30 -30z m190 -65 c0 -33 2 -35 35 -35 33 0 35 2 35 35 0 32 2 35 30
35 28 0 30 -3 30 -35 0 -32 2 -35 30 -35 28 0 30 3 30 35 0 33 2 35 35 35 33
0 35 -2 35 -35 0 -32 2 -35 30 -35 28 0 30 3 30 35 0 33 2 35 35 35 33 0 35
-2 35 -35 0 -32 2 -35 30 -35 28 0 30 3 30 35 0 32 2 35 30 35 28 0 30 -3 30
-35 0 -32 -2 -35 -30 -35 -27 0 -30 -3 -30 -30 0 -27 -3 -30 -30 -30 -28 0
-30 -3 -30 -35 0 -33 -2 -35 -35 -35 -32 0 -35 -2 -35 -30 0 -27 -3 -30 -30
-30 -27 0 -30 -3 -30 -30 0 -28 -3 -30 -35 -30 -32 0 -35 2 -35 30 0 27 -3 30
-30 30 -27 0 -30 3 -30 30 0 27 -3 30 -30 30 -28 0 -30 3 -30 35 0 33 -2 35
-35 35 -32 0 -35 2 -35 30 0 27 -3 30 -30 30 -28 0 -30 3 -30 35 0 32 2 35 30
35 28 0 30 -3 30 -35z"/>
<path d="M2980 5090 c0 -27 3 -30 30 -30 28 0 30 -3 30 -35 0 -32 2 -35 30
-35 27 0 30 -3 30 -30 0 -28 3 -30 35 -30 32 0 35 2 35 30 0 27 3 30 30 30 28
0 30 3 30 35 0 33 2 35 35 35 32 0 35 2 35 30 0 28 -3 30 -35 30 -32 0 -35 -2
-35 -30 0 -27 -3 -30 -30 -30 -27 0 -30 3 -30 30 0 28 -3 30 -35 30 -32 0 -35
-2 -35 -30 0 -27 -3 -30 -30 -30 -27 0 -30 3 -30 30 0 27 -3 30 -30 30 -27 0
-30 -3 -30 -30z m190 -65 c0 -33 -2 -35 -35 -35 -33 0 -35 2 -35 35 0 33 2 35
35 35 33 0 35 -2 35 -35z"/>
<path d="M4640 5220 c0 -27 3 -30 30 -30 27 0 30 3 30 30 0 27 -3 30 -30 30
-27 0 -30 -3 -30 -30z"/>
<path d="M4770 5220 c0 -27 3 -30 30 -30 28 0 30 -3 30 -35 0 -33 2 -35 35
-35 32 0 35 -2 35 -30 0 -27 3 -30 30 -30 28 0 30 -3 30 -35 0 -32 2 -35 30
-35 27 0 30 -3 30 -30 0 -28 3 -30 35 -30 32 0 35 -2 35 -30 0 -27 3 -30 30
-30 27 0 30 3 30 30 0 28 3 30 35 30 32 0 35 2 35 30 0 28 -3 30 -35 30 -33 0
-35 2 -35 35 0 32 -2 35 -30 35 -27 0 -30 3 -30 30 0 27 3 30 30 30 28 0 30 3
30 35 0 33 2 35 35 35 32 0 35 2 35 30 0 28 -3 30 -35 30 -32 0 -35 -2 -35
-30 0 -27 -3 -30 -30 -30 -27 0 -30 3 -30 30 0 28 -3 30 -35 30 -32 0 -35 -2
-35 -30 0 -27 -3 -30 -30 -30 -27 0 -30 3 -30 30 0 27 -3 30 -30 30 -27 0 -30
-3 -30 -30 0 -28 -3 -30 -35 -30 -32 0 -35 2 -35 30 0 27 -3 30 -30 30 -27 0
-30 -3 -30 -30z m190 -65 c0 -32 2 -35 30 -35 28 0 30 3 30 35 0 33 2 35 35
35 33 0 35 -2 35 -35 0 -33 -2 -35 -35 -35 -32 0 -35 -2 -35 -30 0 -28 3 -30
35 -30 33 0 35 -2 35 -35 0 -32 2 -35 30 -35 27 0 30 -3 30 -30 0 -27 -3 -30
-30 -30 -27 0 -30 3 -30 30 0 28 -3 30 -35 30 -33 0 -35 2 -35 35 0 32 -2 35
-30 35 -27 0 -30 3 -30 30 0 27 -3 30 -30 30 -28 0 -30 3 -30 35 0 32 2 35 30
35 28 0 30 -3 30 -35z"/>
<path d="M990 3360 c0 -28 3 -30 35 -30 32 0 35 -2 35 -30 0 -28 -3 -30 -35
-30 -33 0 -35 -2 -35 -35 0 -33 2 -35 35 -35 32 0 35 -2 35 -30 0 -28 -3 -30
-35 -30 -33 0 -35 -2 -35 -35 0 -33 2 -35 35 -35 32 0 35 -2 35 -30 0 -28 -3
-30 -35 -30 -32 0 -35 -2 -35 -30 0 -28 3 -30 35 -30 33 0 35 -2 35 -35 0 -33
-2 -35 -35 -35 -32 0 -35 -2 -35 -30 0 -28 3 -30 35 -30 33 0 35 -2 35 -35 0
-33 -2 -35 -35 -35 -32 0 -35 -2 -35 -30 0 -28 3 -30 35 -30 32 0 35 -2 35
-30 0 -28 -3 -30 -35 -30 -33 0 -35 -2 -35 -35 0 -33 2 -35 35 -35 32 0 35 -2
35 -30 0 -28 -3 -30 -35 -30 -33 0 -35 -2 -35 -35 0 -33 2 -35 35 -35 32 0 35
-2 35 -30 0 -28 -3 -30 -35 -30 -32 0 -35 -2 -35 -30 0 -28 3 -30 35 -30 33 0
35 -2 35 -35 0 -33 -2 -35 -35 -35 -32 0 -35 -2 -35 -30 0 -28 3 -30 35 -30
33 0 35 -2 35 -35 0 -33 -2 -35 -35 -35 -32 0 -35 -2 -35 -30 0 -28 3 -30 35
-30 32 0 35 -2 35 -30 0 -28 -3 -30 -35 -30 -33 0 -35 -2 -35 -35 0 -33 2 -35
35 -35 32 0 35 -2 35 -30 0 -28 -3 -30 -35 -30 -33 0 -35 -2 -35 -35 0 -33 2
-35 35 -35 32 0 35 -2 35 -30 0 -28 -3 -30 -35 -30 -32 0 -35 -2 -35 -30 0
-28 3 -30 35 -30 33 0 35 -2 35 -35 0 -33 -2 -35 -35 -35 -32 0 -35 -2 -35
-30 0 -28 3 -30 35 -30 32 0 35 2 35 30 0 27 3 30 30 30 27 0 30 -3 30 -30 0
-27 3 -30 30 -30 27 0 30 3 30 30 0 28 3 30 35 30 32 0 35 -2 35 -30 0 -27 3
-30 30 -30 27 0 30 3 30 30 0 28 3 30 35 30 32 0 35 -2 35 -30 0 -27 3 -30 30
-30 27 0 30 3 30 30 0 27 3 30 30 30 27 0 30 -3 30 -30 0 -28 3 -30 35 -30 32
0 35 2 35 30 0 27 3 30 30 30 27 0 30 -3 30 -30 0 -28 3 -30 35 -30 32 0 35 2
35 30 0 27 3 30 30 30 27 0 30 -3 30 -30 0 -27 3 -30 30 -30 27 0 30 3 30 30
0 28 3 30 35 30 32 0 35 -2 35 -30 0 -27 3 -30 30 -30 27 0 30 3 30 30 0 28 3
30 35 30 32 0 35 -2 35 -30 0 -27 3 -30 30 -30 27 0 30 3 30 30 0 27 3 30 30
30 27 0 30 -3 30 -30 0 -28 3 -30 35 -30 32 0 35 2 35 30 0 27 3 30 30 30 27
0 30 -3 30 -30 0 -28 3 -30 35 -30 32 0 35 2 35 30 0 27 3 30 30 30 27 0 30
-3 30 -30 0 -27 3 -30 30 -30 27 0 30 3 30 30 0 28 3 30 35 30 32 0 35 -2 35
-30 0 -27 3 -30 30 -30 27 0 30 3 30 30 0 28 3 30 35 30 32 0 35 -2 35 -30 0
-27 3 -30 30 -30 27 0 30 3 30 30 0 27 -3 30 -30 30 -28 0 -30 3 -30 35 0 33
-2 35 -35 35 -32 0 -35 2 -35 30 0 27 -3 30 -30 30 -27 0 -30 -3 -30 -30 0
-28 -3 -30 -35 -30 -32 0 -35 2 -35 30 0 27 -3 30 -30 30 -27 0 -30 3 -30 30
0 27 -3 30 -30 30 -28 0 -30 3 -30 35 0 33 -2 35 -35 35 -32 0 -35 2 -35 30 0
27 -3 30 -30 30 -28 0 -30 3 -30 35 0 33 -2 35 -35 35 -32 0 -35 2 -35 30 0
27 -3 30 -30 30 -27 0 -30 3 -30 30 0 27 -3 30 -30 30 -28 0 -30 3 -30 35 0
33 -2 35 -35 35 -32 0 -35 2 -35 30 0 27 -3 30 -30 30 -28 0 -30 3 -30 35 0
33 -2 35 -35 35 -32 0 -35 2 -35 30 0 27 -3 30 -30 30 -27 0 -30 3 -30 30 0
27 -3 30 -30 30 -28 0 -30 3 -30 35 0 33 -2 35 -35 35 -32 0 -35 2 -35 30 0
27 -3 30 -30 30 -28 0 -30 3 -30 35 0 33 -2 35 -35 35 -32 0 -35 2 -35 30 0
27 -3 30 -30 30 -27 0 -30 3 -30 30 0 27 -3 30 -30 30 -28 0 -30 3 -30 35 0
32 2 35 30 35 27 0 30 3 30 30 0 27 -3 30 -30 30 -28 0 -30 3 -30 35 0 33 -2
35 -35 35 -32 0 -35 2 -35 30 0 27 -3 30 -30 30 -27 0 -30 3 -30 30 0 28 -3
30 -35 30 -33 0 -35 2 -35 35 0 32 -2 35 -30 35 -27 0 -30 3 -30 30 0 27 -3
30 -30 30 -28 0 -30 3 -30 35 0 32 2 35 30 35 27 0 30 3 30 30 0 27 -3 30 -30
30 -27 0 -30 3 -30 30 0 28 -3 30 -35 30 -32 0 -35 -2 -35 -30z m130 -255 c0
-32 2 -35 30 -35 27 0 30 -3 30 -30 0 -28 3 -30 35 -30 32 0 35 -2 35 -30 0
-27 3 -30 30 -30 28 0 30 -3 30 -35 0 -33 2 -35 35 -35 32 0 35 -2 35 -30 0
-28 -3 -30 -35 -30 -33 0 -35 -2 -35 -35 0 -33 2 -35 35 -35 32 0 35 -2 35
-30 0 -27 3 -30 30 -30 27 0 30 -3 30 -30 0 -27 3 -30 30 -30 28 0 30 -3 30
-35 0 -33 2 -35 35 -35 32 0 35 -2 35 -30 0 -27 3 -30 30 -30 28 0 30 -3 30
-35 0 -33 2 -35 35 -35 32 0 35 -2 35 -30 0 -27 3 -30 30 -30 27 0 30 -3 30
-30 0 -27 3 -30 30 -30 28 0 30 -3 30 -35 0 -33 2 -35 35 -35 32 0 35 -2 35
-30 0 -27 3 -30 30 -30 28 0 30 -3 30 -35 0 -33 2 -35 35 -35 32 0 35 -2 35
-30 0 -27 3 -30 30 -30 27 0 30 -3 30 -30 0 -27 3 -30 30 -30 28 0 30 -3 30
-35 0 -33 2 -35 35 -35 32 0 35 -2 35 -30 0 -27 3 -30 30 -30 28 0 30 -3 30
-35 0 -33 2 -35 35 -35 32 0 35 -2 35 -30 0 -27 3 -30 30 -30 27 0 30 -3 30
-30 0 -27 3 -30 30 -30 28 0 30 -3 30 -35 0 -32 -2 -35 -30 -35 -28 0 -30 3
-30 35 0 32 -2 35 -30 35 -28 0 -30 -3 -30 -35 0 -33 -2 -35 -35 -35 -33 0
-35 2 -35 35 0 32 -2 35 -30 35 -28 0 -30 -3 -30 -35 0 -33 -2 -35 -35 -35
-33 0 -35 2 -35 35 0 32 -2 35 -30 35 -28 0 -30 -3 -30 -35 0 -32 -2 -35 -30
-35 -28 0 -30 3 -30 35 0 33 -2 35 -35 35 -33 0 -35 -2 -35 -35 0 -32 -2 -35
-30 -35 -28 0 -30 3 -30 35 0 33 -2 35 -35 35 -33 0 -35 -2 -35 -35 0 -32 -2
-35 -30 -35 -28 0 -30 3 -30 35 0 32 -2 35 -30 35 -28 0 -30 -3 -30 -35 0 -33
-2 -35 -35 -35 -33 0 -35 2 -35 35 0 32 -2 35 -30 35 -28 0 -30 -3 -30 -35 0
-33 -2 -35 -35 -35 -33 0 -35 2 -35 35 0 32 -2 35 -30 35 -28 0 -30 -3 -30
-35 0 -32 -2 -35 -30 -35 -28 0 -30 3 -30 35 0 33 -2 35 -35 35 -33 0 -35 -2
-35 -35 0 -32 -2 -35 -30 -35 -28 0 -30 3 -30 35 0 33 -2 35 -35 35 -33 0 -35
-2 -35 -35 0 -32 -2 -35 -30 -35 -28 0 -30 3 -30 35 0 32 -2 35 -30 35 -27 0
-30 3 -30 30 0 27 3 30 30 30 27 0 30 3 30 30 0 27 -3 30 -30 30 -28 0 -30 3
-30 35 0 32 2 35 30 35 27 0 30 3 30 30 0 27 -3 30 -30 30 -28 0 -30 3 -30 35
0 32 2 35 30 35 27 0 30 3 30 30 0 27 -3 30 -30 30 -27 0 -30 3 -30 30 0 27 3
30 30 30 28 0 30 3 30 35 0 32 -2 35 -30 35 -27 0 -30 3 -30 30 0 27 3 30 30
30 28 0 30 3 30 35 0 32 -2 35 -30 35 -27 0 -30 3 -30 30 0 27 3 30 30 30 27
0 30 3 30 30 0 27 -3 30 -30 30 -28 0 -30 3 -30 35 0 32 2 35 30 35 27 0 30 3
30 30 0 27 -3 30 -30 30 -28 0 -30 3 -30 35 0 32 2 35 30 35 27 0 30 3 30 30
0 27 -3 30 -30 30 -27 0 -30 3 -30 30 0 27 3 30 30 30 28 0 30 3 30 35 0 32
-2 35 -30 35 -27 0 -30 3 -30 30 0 27 3 30 30 30 28 0 30 3 30 35 0 32 -2 35
-30 35 -27 0 -30 3 -30 30 0 27 3 30 30 30 27 0 30 3 30 30 0 27 -3 30 -30 30
-28 0 -30 3 -30 35 0 32 2 35 30 35 28 0 30 -3 30 -35z m1470 -1470 c0 -32 -2
-35 -30 -35 -28 0 -30 3 -30 35 0 32 2 35 30 35 28 0 30 -3 30 -35z"/>
<path d="M1120 2980 c0 -27 3 -30 30 -30 28 0 30 -3 30 -35 0 -32 -2 -35 -30
-35 -27 0 -30 -3 -30 -30 0 -27 3 -30 30 -30 28 0 30 -3 30 -35 0 -32 -2 -35
-30 -35 -27 0 -30 -3 -30 -30 0 -27 3 -30 30 -30 27 0 30 -3 30 -30 0 -27 -3
-30 -30 -30 -28 0 -30 -3 -30 -35 0 -32 2 -35 30 -35 27 0 30 -3 30 -30 0 -27
-3 -30 -30 -30 -28 0 -30 -3 -30 -35 0 -32 2 -35 30 -35 27 0 30 -3 30 -30 0
-27 -3 -30 -30 -30 -27 0 -30 -3 -30 -30 0 -27 3 -30 30 -30 28 0 30 -3 30
-35 0 -32 -2 -35 -30 -35 -27 0 -30 -3 -30 -30 0 -27 3 -30 30 -30 28 0 30 -3
30 -35 0 -32 -2 -35 -30 -35 -27 0 -30 -3 -30 -30 0 -27 3 -30 30 -30 27 0 30
-3 30 -30 0 -27 -3 -30 -30 -30 -28 0 -30 -3 -30 -35 0 -32 2 -35 30 -35 27 0
30 -3 30 -30 0 -27 -3 -30 -30 -30 -28 0 -30 -3 -30 -35 0 -32 2 -35 30 -35
27 0 30 -3 30 -30 0 -27 -3 -30 -30 -30 -27 0 -30 -3 -30 -30 0 -27 3 -30 30
-30 27 0 30 3 30 30 0 28 3 30 35 30 32 0 35 -2 35 -30 0 -27 3 -30 30 -30 27
0 30 3 30 30 0 28 3 30 35 30 32 0 35 -2 35 -30 0 -27 3 -30 30 -30 27 0 30 3
30 30 0 27 3 30 30 30 27 0 30 -3 30 -30 0 -28 3 -30 35 -30 32 0 35 2 35 30
0 27 3 30 30 30 27 0 30 -3 30 -30 0 -28 3 -30 35 -30 32 0 35 2 35 30 0 27 3
30 30 30 27 0 30 -3 30 -30 0 -27 3 -30 30 -30 27 0 30 3 30 30 0 28 3 30 35
30 32 0 35 -2 35 -30 0 -27 3 -30 30 -30 27 0 30 3 30 30 0 28 3 30 35 30 32
0 35 -2 35 -30 0 -27 3 -30 30 -30 27 0 30 3 30 30 0 27 3 30 30 30 27 0 30
-3 30 -30 0 -28 3 -30 35 -30 32 0 35 2 35 30 0 27 3 30 30 30 27 0 30 -3 30
-30 0 -28 3 -30 35 -30 32 0 35 2 35 30 0 28 -3 30 -35 30 -32 0 -35 2 -35 30
0 27 -3 30 -30 30 -28 0 -30 3 -30 35 0 33 -2 35 -35 35 -32 0 -35 2 -35 30 0
27 -3 30 -30 30 -28 0 -30 3 -30 35 0 32 -2 35 -30 35 -27 0 -30 3 -30 30 0
28 -3 30 -35 30 -32 0 -35 2 -35 30 0 27 -3 30 -30 30 -28 0 -30 3 -30 35 0
33 -2 35 -35 35 -32 0 -35 2 -35 30 0 27 -3 30 -30 30 -28 0 -30 3 -30 35 0
32 -2 35 -30 35 -27 0 -30 3 -30 30 0 28 -3 30 -35 30 -32 0 -35 2 -35 30 0
27 -3 30 -30 30 -28 0 -30 3 -30 35 0 33 -2 35 -35 35 -32 0 -35 2 -35 30 0
27 -3 30 -30 30 -28 0 -30 3 -30 35 0 32 -2 35 -30 35 -27 0 -30 3 -30 30 0
28 -3 30 -35 30 -32 0 -35 2 -35 30 0 27 -3 30 -30 30 -28 0 -30 3 -30 35 0
32 2 35 30 35 27 0 30 3 30 30 0 27 -3 30 -30 30 -28 0 -30 3 -30 35 0 33 -2
35 -35 35 -32 0 -35 2 -35 30 0 27 -3 30 -30 30 -27 0 -30 -3 -30 -30z m130
-130 c0 -28 -3 -30 -35 -30 -32 0 -35 2 -35 30 0 28 3 30 35 30 32 0 35 -2 35
-30z m0 -130 c0 -27 3 -30 30 -30 27 0 30 -3 30 -30 0 -28 3 -30 35 -30 33 0
35 -2 35 -35 0 -32 2 -35 30 -35 27 0 30 -3 30 -30 0 -27 3 -30 30 -30 28 0
30 -3 30 -35 0 -33 2 -35 35 -35 32 0 35 -2 35 -30 0 -27 3 -30 30 -30 27 0
30 -3 30 -30 0 -28 3 -30 35 -30 33 0 35 -2 35 -35 0 -32 2 -35 30 -35 27 0
30 -3 30 -30 0 -27 3 -30 30 -30 28 0 30 -3 30 -35 0 -33 2 -35 35 -35 32 0
35 -2 35 -30 0 -27 3 -30 30 -30 27 0 30 -3 30 -30 0 -28 3 -30 35 -30 33 0
35 -2 35 -35 0 -32 2 -35 30 -35 27 0 30 -3 30 -30 0 -27 3 -30 30 -30 28 0
30 -3 30 -35 0 -33 2 -35 35 -35 32 0 35 -2 35 -30 0 -28 -3 -30 -35 -30 -32
0 -35 2 -35 30 0 27 -3 30 -30 30 -27 0 -30 -3 -30 -30 0 -27 -3 -30 -30 -30
-27 0 -30 3 -30 30 0 28 -3 30 -35 30 -32 0 -35 -2 -35 -30 0 -27 -3 -30 -30
-30 -27 0 -30 3 -30 30 0 28 -3 30 -35 30 -32 0 -35 -2 -35 -30 0 -27 -3 -30
-30 -30 -27 0 -30 3 -30 30 0 27 -3 30 -30 30 -27 0 -30 -3 -30 -30 0 -28 -3
-30 -35 -30 -32 0 -35 2 -35 30 0 27 -3 30 -30 30 -27 0 -30 -3 -30 -30 0 -28
-3 -30 -35 -30 -32 0 -35 2 -35 30 0 27 -3 30 -30 30 -27 0 -30 -3 -30 -30 0
-27 -3 -30 -30 -30 -27 0 -30 3 -30 30 0 28 -3 30 -35 30 -32 0 -35 -2 -35
-30 0 -27 -3 -30 -30 -30 -27 0 -30 3 -30 30 0 28 -3 30 -35 30 -33 0 -35 2
-35 35 0 33 2 35 35 35 32 0 35 2 35 30 0 28 -3 30 -35 30 -33 0 -35 2 -35 35
0 33 2 35 35 35 32 0 35 2 35 30 0 28 -3 30 -35 30 -32 0 -35 2 -35 30 0 28 3
30 35 30 33 0 35 2 35 35 0 33 -2 35 -35 35 -32 0 -35 2 -35 30 0 28 3 30 35
30 33 0 35 2 35 35 0 33 -2 35 -35 35 -32 0 -35 2 -35 30 0 28 3 30 35 30 32
0 35 2 35 30 0 28 -3 30 -35 30 -33 0 -35 2 -35 35 0 33 2 35 35 35 32 0 35 2
35 30 0 28 -3 30 -35 30 -33 0 -35 2 -35 35 0 33 2 35 35 35 32 0 35 2 35 30
0 28 -3 30 -35 30 -32 0 -35 2 -35 30 0 28 3 30 35 30 32 0 35 -2 35 -30z"/>
<path d="M1250 2595 c0 -32 2 -35 30 -35 27 0 30 -3 30 -30 0 -27 -3 -30 -30
-30 -28 0 -30 -3 -30 -35 0 -32 2 -35 30 -35 27 0 30 -3 30 -30 0 -27 -3 -30
-30 -30 -27 0 -30 -3 -30 -30 0 -27 3 -30 30 -30 28 0 30 -3 30 -35 0 -32 -2
-35 -30 -35 -27 0 -30 -3 -30 -30 0 -27 3 -30 30 -30 28 0 30 -3 30 -35 0 -32
-2 -35 -30 -35 -27 0 -30 -3 -30 -30 0 -27 3 -30 30 -30 27 0 30 -3 30 -30 0
-27 -3 -30 -30 -30 -28 0 -30 -3 -30 -35 0 -32 2 -35 30 -35 27 0 30 -3 30
-30 0 -27 -3 -30 -30 -30 -28 0 -30 -3 -30 -35 0 -32 2 -35 30 -35 28 0 30 3
30 35 0 33 2 35 35 35 33 0 35 -2 35 -35 0 -32 2 -35 30 -35 28 0 30 3 30 35
0 32 2 35 30 35 28 0 30 -3 30 -35 0 -33 2 -35 35 -35 33 0 35 2 35 35 0 32 2
35 30 35 28 0 30 -3 30 -35 0 -33 2 -35 35 -35 33 0 35 2 35 35 0 32 2 35 30
35 28 0 30 -3 30 -35 0 -32 2 -35 30 -35 28 0 30 3 30 35 0 33 2 35 35 35 33
0 35 -2 35 -35 0 -32 2 -35 30 -35 28 0 30 3 30 35 0 33 2 35 35 35 33 0 35
-2 35 -35 0 -32 2 -35 30 -35 28 0 30 3 30 35 0 32 -2 35 -30 35 -27 0 -30 3
-30 30 0 28 -3 30 -35 30 -33 0 -35 2 -35 35 0 32 -2 35 -30 35 -27 0 -30 3
-30 30 0 28 -3 30 -35 30 -32 0 -35 2 -35 30 0 27 -3 30 -30 30 -28 0 -30 3
-30 35 0 32 -2 35 -30 35 -27 0 -30 3 -30 30 0 28 -3 30 -35 30 -33 0 -35 2
-35 35 0 32 -2 35 -30 35 -27 0 -30 3 -30 30 0 28 -3 30 -35 30 -32 0 -35 2
-35 30 0 27 -3 30 -30 30 -28 0 -30 3 -30 35 0 32 -2 35 -30 35 -27 0 -30 3
-30 30 0 28 -3 30 -35 30 -33 0 -35 2 -35 35 0 32 -2 35 -30 35 -28 0 -30 -3
-30 -35z m130 -130 c0 -32 2 -35 30 -35 27 0 30 -3 30 -30 0 -27 3 -30 30 -30
27 0 30 -3 30 -30 0 -28 3 -30 35 -30 33 0 35 -2 35 -35 0 -32 2 -35 30 -35
27 0 30 -3 30 -30 0 -28 3 -30 35 -30 33 0 35 -2 35 -35 0 -32 2 -35 30 -35
27 0 30 -3 30 -30 0 -27 3 -30 30 -30 27 0 30 -3 30 -30 0 -28 3 -30 35 -30
33 0 35 -2 35 -35 0 -32 2 -35 30 -35 27 0 30 -3 30 -30 0 -27 -3 -30 -30 -30
-27 0 -30 3 -30 30 0 28 -3 30 -35 30 -32 0 -35 -2 -35 -30 0 -27 -3 -30 -30
-30 -27 0 -30 3 -30 30 0 27 -3 30 -30 30 -27 0 -30 -3 -30 -30 0 -28 -3 -30
-35 -30 -32 0 -35 2 -35 30 0 27 -3 30 -30 30 -27 0 -30 -3 -30 -30 0 -28 -3
-30 -35 -30 -32 0 -35 2 -35 30 0 27 -3 30 -30 30 -27 0 -30 -3 -30 -30 0 -27
-3 -30 -30 -30 -27 0 -30 3 -30 30 0 28 -3 30 -35 30 -33 0 -35 2 -35 35 0 33
2 35 35 35 32 0 35 2 35 30 0 28 -3 30 -35 30 -32 0 -35 2 -35 30 0 28 3 30
35 30 33 0 35 2 35 35 0 33 -2 35 -35 35 -32 0 -35 2 -35 30 0 28 3 30 35 30
33 0 35 2 35 35 0 33 -2 35 -35 35 -32 0 -35 2 -35 30 0 28 3 30 35 30 32 0
35 2 35 30 0 28 -3 30 -35 30 -33 0 -35 2 -35 35 0 33 2 35 35 35 33 0 35 -2
35 -35z"/>
<path d="M1380 2340 c0 -27 3 -30 30 -30 28 0 30 -3 30 -35 0 -32 -2 -35 -30
-35 -27 0 -30 -3 -30 -30 0 -27 3 -30 30 -30 28 0 30 -3 30 -35 0 -32 -2 -35
-30 -35 -27 0 -30 -3 -30 -30 0 -27 3 -30 30 -30 27 0 30 -3 30 -30 0 -27 -3
-30 -30 -30 -28 0 -30 -3 -30 -35 0 -32 2 -35 30 -35 28 0 30 3 30 35 0 32 2
35 30 35 28 0 30 -3 30 -35 0 -33 2 -35 35 -35 33 0 35 2 35 35 0 32 2 35 30
35 28 0 30 -3 30 -35 0 -33 2 -35 35 -35 33 0 35 2 35 35 0 32 2 35 30 35 28
0 30 -3 30 -35 0 -32 2 -35 30 -35 28 0 30 3 30 35 0 32 -2 35 -30 35 -27 0
-30 3 -30 30 0 27 -3 30 -30 30 -27 0 -30 3 -30 30 0 28 -3 30 -35 30 -33 0
-35 2 -35 35 0 32 -2 35 -30 35 -27 0 -30 3 -30 30 0 28 -3 30 -35 30 -33 0
-35 2 -35 35 0 32 -2 35 -30 35 -27 0 -30 3 -30 30 0 27 -3 30 -30 30 -27 0
-30 -3 -30 -30z m120 -130 c0 -28 3 -30 35 -30 33 0 35 -2 35 -35 0 -32 2 -35
30 -35 27 0 30 -3 30 -30 0 -28 3 -30 35 -30 32 0 35 -2 35 -30 0 -28 -3 -30
-35 -30 -32 0 -35 2 -35 30 0 27 -3 30 -30 30 -27 0 -30 -3 -30 -30 0 -28 -3
-30 -35 -30 -32 0 -35 2 -35 30 0 27 -3 30 -30 30 -27 0 -30 3 -30 30 0 27 3
30 30 30 28 0 30 3 30 35 0 32 -2 35 -30 35 -27 0 -30 3 -30 30 0 27 3 30 30
30 27 0 30 -3 30 -30z"/>
<path d="M1500 2080 c0 -28 3 -30 35 -30 32 0 35 2 35 30 0 28 -3 30 -35 30
-32 0 -35 -2 -35 -30z"/>
<path d="M3110 4591 c0 -30 16 -33 28 -6 10 22 9 25 -8 25 -13 0 -20 -7 -20
-19z"/>
<path d="M5240 4395 c0 -14 9 -30 20 -37 21 -13 28 -64 10 -70 -6 -2 -6 -14
-1 -33 l9 -30 1 33 c1 29 4 32 31 32 27 0 30 3 30 30 0 27 -3 30 -30 30 -28 0
-30 3 -30 35 0 28 -4 35 -20 35 -15 0 -20 -7 -20 -25z"/>
<path d="M5284 4086 c-11 -29 1 -51 29 -54 25 -3 27 -1 27 32 0 32 -3 36 -25
36 -14 0 -28 -6 -31 -14z"/>
<path d="M5230 3754 c-15 -39 -13 -44 20 -44 27 0 30 -3 30 -30 0 -27 -3 -30
-30 -30 -23 0 -30 4 -30 20 0 24 -15 27 -24 4 -9 -22 -8 -24 9 -24 10 0 15
-10 15 -29 0 -24 -5 -30 -30 -34 -16 -4 -30 -12 -30 -19 0 -7 -11 -34 -25 -61
-25 -46 -25 -47 -5 -47 16 0 20 -7 20 -35 0 -32 -2 -35 -30 -35 -27 0 -30 -3
-30 -30 0 -25 -4 -30 -25 -30 -18 0 -28 -8 -38 -32 -8 -18 -24 -42 -36 -52
-28 -26 -27 -46 4 -46 21 0 25 -5 25 -30 0 -27 -3 -30 -30 -30 -26 0 -30 4
-30 26 l0 26 -19 -23 c-19 -24 -19 -24 0 -27 14 -3 19 -12 19 -38 0 -31 -2
-34 -30 -34 -27 0 -30 -3 -30 -30 0 -28 -3 -30 -35 -30 -32 0 -35 -3 -35 -29
0 -24 -5 -30 -30 -34 -25 -6 -30 -11 -30 -37 0 -23 -4 -30 -20 -30 -11 0 -28
-12 -37 -27 -10 -16 -30 -39 -45 -51 -16 -13 -28 -28 -28 -34 0 -5 -13 -21
-30 -35 -16 -13 -30 -29 -30 -34 0 -5 14 -9 30 -9 27 0 30 -3 30 -30 0 -27 -3
-30 -30 -30 -25 0 -30 4 -30 25 0 14 -4 25 -8 25 -5 0 -19 -11 -32 -25 l-23
-25 31 0 c30 0 32 -2 32 -35 0 -33 -2 -35 -35 -35 -33 0 -35 2 -35 32 l0 31
-25 -23 c-14 -13 -25 -27 -25 -32 0 -4 11 -8 25 -8 21 0 25 -5 25 -30 0 -27
-3 -30 -30 -30 -23 0 -30 4 -30 20 0 11 -4 20 -8 20 -5 0 -17 -9 -27 -20 -18
-20 -17 -20 8 -20 24 0 27 -4 27 -35 0 -33 -2 -35 -35 -35 -31 0 -35 3 -35 27
0 25 0 26 -20 8 -11 -10 -20 -22 -20 -27 0 -4 9 -8 20 -8 16 0 20 -7 20 -30 0
-27 -3 -30 -30 -30 -26 0 -30 4 -30 27 l0 26 -26 -24 -26 -24 26 -3 c21 -3 26
-9 26 -33 0 -26 -3 -29 -30 -29 -23 0 -30 4 -30 20 0 25 -12 25 -35 0 -18 -20
-17 -20 8 -20 24 0 27 -4 27 -35 0 -33 -2 -35 -35 -35 -31 0 -35 3 -35 25 0
26 0 26 -25 8 -31 -23 -31 -33 0 -33 21 0 25 -5 25 -30 0 -27 -3 -30 -29 -30
-25 0 -30 5 -33 27 l-3 27 -30 -27 -30 -26 33 -1 c30 0 32 -2 32 -35 0 -33 -2
-35 -35 -35 -33 0 -35 2 -35 32 l0 31 -25 -23 c-14 -13 -25 -27 -25 -32 0 -4
11 -8 25 -8 21 0 25 -5 25 -30 0 -27 -3 -30 -30 -30 -27 0 -30 3 -30 30 0 36
-9 38 -38 7 -29 -31 -28 -37 8 -37 27 0 30 -3 30 -30 0 -27 -3 -30 -30 -30
-25 0 -30 4 -30 24 0 38 -15 39 -51 4 -19 -18 -43 -37 -54 -43 -11 -6 -21 -21
-23 -33 -3 -16 -10 -22 -29 -22 -18 0 -28 -8 -36 -30 -6 -16 -18 -30 -27 -30
-23 0 -40 -20 -40 -47 0 -19 -5 -23 -30 -23 -27 0 -30 -3 -30 -30 0 -28 -3
-30 -35 -30 -33 0 -35 -2 -35 -31 0 -31 0 -32 -42 -26 -24 2 -37 3 -30 0 6 -3
12 -20 12 -39 0 -32 -2 -34 -35 -34 -24 0 -35 5 -35 15 0 8 -4 15 -9 15 -5 0
-14 -7 -21 -15 -10 -13 -9 -15 9 -15 17 0 21 -6 21 -30 0 -27 -3 -30 -29 -30
-24 0 -30 5 -33 24 l-3 24 -30 -24 -30 -24 33 0 c30 0 32 -2 32 -35 0 -32 2
-35 30 -35 28 0 30 3 30 35 0 33 2 35 35 35 32 0 35 2 35 30 0 27 3 30 30 30
27 0 30 -3 30 -30 0 -28 3 -30 35 -30 32 0 35 2 35 30 0 27 3 30 30 30 27 0
30 -3 30 -30 0 -27 3 -30 30 -30 27 0 30 3 30 30 0 28 3 30 35 30 32 0 35 -2
35 -30 0 -27 3 -30 30 -30 28 0 30 -3 30 -35 0 -31 -3 -35 -25 -35 -14 0 -35
-9 -47 -20 -19 -17 -19 -20 -5 -20 9 0 17 -4 17 -10 0 -14 38 -12 54 2 7 7 11
20 8 30 -4 15 2 18 32 18 33 0 36 -2 36 -30 0 -27 3 -30 30 -30 27 0 30 3 30
30 0 27 3 30 30 30 27 0 30 -3 30 -30 0 -28 3 -30 35 -30 32 0 35 2 35 30 0
27 3 30 30 30 27 0 30 -3 30 -30 0 -28 3 -30 35 -30 32 0 35 2 35 30 0 27 3
30 30 30 28 0 30 3 30 35 0 32 2 35 30 35 28 0 30 -3 30 -35 0 -33 2 -35 35
-35 33 0 35 2 35 35 0 32 2 35 30 35 28 0 30 -3 30 -35 0 -33 2 -35 35 -35 32
0 35 -2 35 -30 0 -27 3 -30 30 -30 27 0 30 3 30 30 0 27 3 30 30 30 27 0 30
-3 30 -30 0 -28 3 -30 35 -30 32 0 35 2 35 30 0 27 3 30 30 30 27 0 30 -3 30
-30 0 -28 3 -30 35 -30 32 0 35 2 35 30 0 27 3 30 30 30 27 0 30 -3 30 -30 0
-27 3 -30 30 -30 27 0 30 3 30 30 0 28 3 30 35 30 32 0 35 -2 35 -30 0 -27 3
-30 30 -30 27 0 30 3 30 30 0 28 3 30 35 30 32 0 35 -2 35 -30 0 -27 3 -30 30
-30 27 0 30 3 30 30 0 27 3 30 30 30 28 0 30 3 30 35 0 32 -2 35 -30 35 -27 0
-30 3 -30 30 0 27 -3 30 -30 30 -28 0 -30 3 -30 35 0 32 2 35 30 35 27 0 30 3
30 30 0 27 3 30 30 30 27 0 30 3 30 30 0 27 -3 30 -30 30 -28 0 -30 3 -30 35
0 32 -2 35 -30 35 -27 0 -30 3 -30 30 0 27 3 30 30 30 28 0 30 3 30 35 0 32 2
35 30 35 27 0 30 3 30 30 0 27 -3 30 -30 30 -27 0 -30 3 -30 30 0 27 3 30 30
30 28 0 30 3 30 35 0 32 -2 35 -30 35 -27 0 -30 3 -30 30 0 27 -3 30 -30 30
-28 0 -30 3 -30 35 0 32 2 35 30 35 27 0 30 3 30 30 0 27 3 30 30 30 27 0 30
3 30 30 0 27 -3 30 -30 30 -28 0 -30 3 -30 35 0 32 -2 35 -30 35 -27 0 -30 3
-30 30 0 27 3 30 30 30 28 0 30 3 30 35 0 32 2 35 30 35 27 0 30 3 30 30 0 27
-3 30 -30 30 -27 0 -30 3 -30 30 0 27 3 30 30 30 28 0 30 3 30 35 0 32 -2 35
-30 35 -27 0 -30 3 -30 30 0 27 -3 30 -30 30 -28 0 -30 3 -30 35 0 32 2 35 30
35 27 0 30 3 30 30 0 27 3 30 30 30 27 0 30 3 30 30 0 27 -3 30 -30 30 -28 0
-30 3 -30 35 0 32 -2 35 -30 35 -27 0 -30 3 -30 30 0 27 3 30 30 30 28 0 30 3
30 35 0 32 2 35 30 35 27 0 30 3 30 30 0 27 -3 30 -30 30 -27 0 -30 3 -30 30
0 27 3 30 30 30 28 0 30 3 30 35 0 32 -2 35 -30 35 -27 0 -30 3 -30 30 0 27
-3 30 -30 30 -28 0 -30 3 -30 35 0 32 2 35 30 35 27 0 30 3 30 30 0 27 3 30
30 30 27 0 30 3 30 30 0 27 -3 30 -30 30 -28 0 -30 3 -30 35 0 28 -4 35 -20
35 -13 0 -24 -10 -30 -26z m-10 -264 c0 -27 3 -30 30 -30 28 0 30 -3 30 -35 0
-32 -2 -35 -30 -35 -27 0 -30 -3 -30 -30 0 -27 3 -30 30 -30 27 0 30 -3 30
-30 0 -27 -3 -30 -30 -30 -28 0 -30 -3 -30 -35 0 -33 -2 -35 -35 -35 -32 0
-35 -2 -35 -30 0 -28 3 -30 35 -30 33 0 35 -2 35 -35 0 -32 2 -35 30 -35 27 0
30 -3 30 -30 0 -27 -3 -30 -30 -30 -27 0 -30 -3 -30 -30 0 -28 -3 -30 -35 -30
-33 0 -35 -2 -35 -35 0 -33 2 -35 35 -35 32 0 35 -2 35 -30 0 -27 3 -30 30
-30 28 0 30 -3 30 -35 0 -32 -2 -35 -30 -35 -27 0 -30 -3 -30 -30 0 -27 3 -30
30 -30 27 0 30 -3 30 -30 0 -27 -3 -30 -30 -30 -28 0 -30 -3 -30 -35 0 -33 -2
-35 -35 -35 -32 0 -35 -2 -35 -30 0 -28 3 -30 35 -30 33 0 35 -2 35 -35 0 -32
2 -35 30 -35 27 0 30 -3 30 -30 0 -27 -3 -30 -30 -30 -27 0 -30 -3 -30 -30 0
-28 -3 -30 -35 -30 -33 0 -35 -2 -35 -35 0 -33 2 -35 35 -35 32 0 35 -2 35
-30 0 -27 3 -30 30 -30 28 0 30 -3 30 -35 0 -32 -2 -35 -30 -35 -27 0 -30 -3
-30 -30 0 -27 3 -30 30 -30 27 0 30 -3 30 -30 0 -27 -3 -30 -30 -30 -28 0 -30
-3 -30 -35 0 -33 -2 -35 -35 -35 -32 0 -35 -2 -35 -30 0 -28 3 -30 35 -30 33
0 35 -2 35 -35 0 -32 2 -35 30 -35 27 0 30 -3 30 -30 0 -27 -3 -30 -30 -30
-27 0 -30 -3 -30 -30 0 -28 -3 -30 -35 -30 -33 0 -35 -2 -35 -35 0 -33 2 -35
35 -35 32 0 35 -2 35 -30 0 -27 3 -30 30 -30 28 0 30 -3 30 -35 0 -32 -2 -35
-30 -35 -28 0 -30 3 -30 35 0 33 -2 35 -35 35 -33 0 -35 -2 -35 -35 0 -32 -2
-35 -30 -35 -28 0 -30 3 -30 35 0 33 -2 35 -35 35 -33 0 -35 -2 -35 -35 0 -32
-2 -35 -30 -35 -28 0 -30 3 -30 35 0 32 -2 35 -30 35 -28 0 -30 -3 -30 -35 0
-33 -2 -35 -35 -35 -33 0 -35 2 -35 35 0 32 -2 35 -30 35 -28 0 -30 -3 -30
-35 0 -33 -2 -35 -35 -35 -33 0 -35 2 -35 35 0 32 -2 35 -30 35 -28 0 -30 -3
-30 -35 0 -32 -2 -35 -30 -35 -28 0 -30 3 -30 35 0 33 -2 35 -35 35 -32 0 -35
2 -35 30 0 27 -3 30 -30 30 -27 0 -30 -3 -30 -30 0 -28 -3 -30 -35 -30 -32 0
-35 2 -35 30 0 27 -3 30 -30 30 -27 0 -30 -3 -30 -30 0 -27 -3 -30 -30 -30
-28 0 -30 -3 -30 -35 0 -33 -2 -35 -35 -35 -33 0 -35 2 -35 35 0 32 -2 35 -30
35 -28 0 -30 -3 -30 -35 0 -33 -2 -35 -35 -35 -33 0 -35 2 -35 35 0 32 -2 35
-30 35 -28 0 -30 -3 -30 -35 0 -32 -2 -35 -30 -35 -28 0 -30 3 -30 35 0 33 -2
35 -35 35 -32 0 -35 2 -35 30 0 27 -3 30 -30 30 -28 0 -30 3 -30 35 0 33 -2
35 -35 35 -33 0 -35 -2 -35 -35 0 -32 -2 -35 -30 -35 -28 0 -30 3 -30 35 0 32
-2 35 -30 35 -28 0 -30 -3 -30 -35 0 -33 -2 -35 -35 -35 -33 0 -35 2 -35 35 0
33 2 35 35 35 32 0 35 2 35 30 0 27 3 30 30 30 27 0 30 3 30 30 0 27 3 30 30
30 28 0 30 3 30 35 0 33 2 35 35 35 32 0 35 2 35 30 0 27 3 30 30 30 28 0 30
3 30 35 0 33 2 35 35 35 33 0 35 -2 35 -35 0 -32 2 -35 30 -35 28 0 30 3 30
35 0 32 2 35 30 35 27 0 30 3 30 30 0 28 3 30 35 30 32 0 35 2 35 30 0 27 3
30 30 30 28 0 30 3 30 35 0 33 2 35 35 35 32 0 35 2 35 30 0 27 3 30 30 30 28
0 30 3 30 35 0 32 2 35 30 35 27 0 30 3 30 30 0 28 3 30 35 30 32 0 35 2 35
30 0 27 3 30 30 30 28 0 30 3 30 35 0 33 2 35 35 35 32 0 35 2 35 30 0 27 3
30 30 30 28 0 30 3 30 35 0 32 2 35 30 35 27 0 30 3 30 30 0 27 -3 30 -30 30
-27 0 -30 3 -30 30 0 27 3 30 30 30 28 0 30 3 30 35 0 33 2 35 35 35 32 0 35
2 35 30 0 27 3 30 30 30 28 0 30 3 30 35 0 33 2 35 35 35 32 0 35 2 35 30 0
27 3 30 30 30 27 0 30 3 30 30 0 27 3 30 30 30 28 0 30 3 30 35 0 33 2 35 35
35 32 0 35 2 35 30 0 28 -3 30 -35 30 -33 0 -35 2 -35 35 0 33 2 35 35 35 32
0 35 2 35 30 0 27 3 30 30 30 27 0 30 3 30 30 0 28 3 30 35 30 33 0 35 2 35
35 0 33 -2 35 -35 35 -32 0 -35 2 -35 30 0 28 3 30 35 30 32 0 35 -2 35 -30z
m-1375 -2050 c3 -5 -1 -10 -9 -10 -9 0 -16 5 -16 10 0 6 4 10 9 10 6 0 13 -4
16 -10z"/>
<path d="M5150 3300 c0 -27 -3 -30 -30 -30 -28 0 -30 -3 -30 -35 0 -32 2 -35
30 -35 28 0 30 3 30 35 0 33 2 35 35 35 32 0 35 2 35 30 0 28 -3 30 -35 30
-32 0 -35 -2 -35 -30z"/>
<path d="M5090 3105 c0 -33 -2 -35 -35 -35 -32 0 -35 -2 -35 -30 0 -27 -3 -30
-30 -30 -27 0 -30 -3 -30 -30 0 -27 -3 -30 -30 -30 -28 0 -30 -3 -30 -35 0
-33 -2 -35 -35 -35 -32 0 -35 -2 -35 -30 0 -27 -3 -30 -30 -30 -28 0 -30 -3
-30 -35 0 -33 -2 -35 -35 -35 -32 0 -35 -2 -35 -30 0 -28 3 -30 35 -30 32 0
35 -2 35 -30 0 -28 -3 -30 -35 -30 -33 0 -35 -2 -35 -35 0 -32 -2 -35 -30 -35
-27 0 -30 -3 -30 -30 0 -27 -3 -30 -30 -30 -28 0 -30 -3 -30 -35 0 -33 -2 -35
-35 -35 -32 0 -35 -2 -35 -30 0 -27 -3 -30 -30 -30 -27 0 -30 -3 -30 -30 0
-28 -3 -30 -35 -30 -33 0 -35 -2 -35 -35 0 -32 -2 -35 -30 -35 -27 0 -30 -3
-30 -30 0 -27 -3 -30 -30 -30 -28 0 -30 -3 -30 -35 0 -33 -2 -35 -35 -35 -32
0 -35 -2 -35 -30 0 -27 -3 -30 -30 -30 -27 0 -30 -3 -30 -30 0 -28 -3 -30 -35
-30 -33 0 -35 -2 -35 -35 0 -32 -2 -35 -30 -35 -27 0 -30 -3 -30 -30 0 -27 -3
-30 -30 -30 -27 0 -30 3 -30 30 0 28 -3 30 -35 30 -32 0 -35 -2 -35 -30 0 -27
-3 -30 -30 -30 -28 0 -30 -3 -30 -35 0 -33 -2 -35 -35 -35 -32 0 -35 -2 -35
-30 0 -27 -3 -30 -30 -30 -27 0 -30 -3 -30 -30 0 -27 3 -30 30 -30 27 0 30 3
30 30 0 28 3 30 35 30 32 0 35 -2 35 -30 0 -27 3 -30 30 -30 28 0 30 -3 30
-35 0 -33 2 -35 35 -35 32 0 35 -2 35 -30 0 -27 3 -30 30 -30 27 0 30 3 30 30
0 27 3 30 30 30 27 0 30 -3 30 -30 0 -28 3 -30 35 -30 32 0 35 2 35 30 0 27 3
30 30 30 27 0 30 -3 30 -30 0 -28 3 -30 35 -30 32 0 35 2 35 30 0 27 3 30 30
30 28 0 30 3 30 35 0 32 2 35 30 35 28 0 30 -3 30 -35 0 -33 2 -35 35 -35 33
0 35 2 35 35 0 32 2 35 30 35 28 0 30 -3 30 -35 0 -33 2 -35 35 -35 32 0 35
-2 35 -30 0 -27 3 -30 30 -30 27 0 30 3 30 30 0 27 3 30 30 30 27 0 30 -3 30
-30 0 -28 3 -30 35 -30 32 0 35 2 35 30 0 27 3 30 30 30 27 0 30 -3 30 -30 0
-28 3 -30 35 -30 32 0 35 2 35 30 0 27 3 30 30 30 27 0 30 -3 30 -30 0 -27 3
-30 30 -30 27 0 30 3 30 30 0 28 3 30 35 30 32 0 35 -2 35 -30 0 -27 3 -30 30
-30 27 0 30 3 30 30 0 27 -3 30 -30 30 -28 0 -30 3 -30 35 0 32 2 35 30 35 27
0 30 3 30 30 0 28 3 30 35 30 32 0 35 2 35 30 0 28 -3 30 -35 30 -33 0 -35 2
-35 35 0 32 -2 35 -30 35 -27 0 -30 3 -30 30 0 27 3 30 30 30 28 0 30 3 30 35
0 33 2 35 35 35 32 0 35 2 35 30 0 28 -3 30 -35 30 -32 0 -35 2 -35 30 0 28 3
30 35 30 33 0 35 2 35 35 0 33 -2 35 -35 35 -32 0 -35 2 -35 30 0 27 -3 30
-30 30 -28 0 -30 3 -30 35 0 32 2 35 30 35 27 0 30 3 30 30 0 28 3 30 35 30
32 0 35 2 35 30 0 28 -3 30 -35 30 -33 0 -35 2 -35 35 0 32 -2 35 -30 35 -27
0 -30 3 -30 30 0 27 3 30 30 30 28 0 30 3 30 35 0 33 2 35 35 35 32 0 35 2 35
30 0 28 -3 30 -35 30 -32 0 -35 2 -35 30 0 28 3 30 35 30 33 0 35 2 35 35 0
33 -2 35 -35 35 -32 0 -35 2 -35 30 0 27 -3 30 -30 30 -28 0 -30 3 -30 35 0
32 2 35 30 35 27 0 30 3 30 30 0 28 3 30 35 30 32 0 35 2 35 30 0 28 -3 30
-35 30 -33 0 -35 2 -35 35 0 32 -2 35 -30 35 -28 0 -30 -3 -30 -35z m60 -65
c0 -27 -3 -30 -30 -30 -27 0 -30 -3 -30 -30 0 -28 -3 -30 -35 -30 -33 0 -35
-2 -35 -35 0 -33 2 -35 35 -35 32 0 35 -2 35 -30 0 -27 3 -30 30 -30 28 0 30
-3 30 -35 0 -32 -2 -35 -30 -35 -27 0 -30 -3 -30 -30 0 -27 3 -30 30 -30 27 0
30 -3 30 -30 0 -27 -3 -30 -30 -30 -28 0 -30 -3 -30 -35 0 -33 -2 -35 -35 -35
-32 0 -35 -2 -35 -30 0 -28 3 -30 35 -30 33 0 35 -2 35 -35 0 -32 2 -35 30
-35 27 0 30 -3 30 -30 0 -27 -3 -30 -30 -30 -27 0 -30 -3 -30 -30 0 -28 -3
-30 -35 -30 -33 0 -35 -2 -35 -35 0 -33 2 -35 35 -35 32 0 35 -2 35 -30 0 -27
3 -30 30 -30 28 0 30 -3 30 -35 0 -32 -2 -35 -30 -35 -27 0 -30 -3 -30 -30 0
-27 3 -30 30 -30 27 0 30 -3 30 -30 0 -27 -3 -30 -30 -30 -28 0 -30 -3 -30
-35 0 -33 -2 -35 -35 -35 -32 0 -35 -2 -35 -30 0 -28 3 -30 35 -30 33 0 35 -2
35 -35 0 -32 2 -35 30 -35 27 0 30 -3 30 -30 0 -27 -3 -30 -30 -30 -27 0 -30
-3 -30 -30 0 -28 -3 -30 -35 -30 -33 0 -35 -2 -35 -35 0 -32 -2 -35 -30 -35
-28 0 -30 3 -30 35 0 32 -2 35 -30 35 -28 0 -30 -3 -30 -35 0 -33 -2 -35 -35
-35 -33 0 -35 2 -35 35 0 32 -2 35 -30 35 -28 0 -30 -3 -30 -35 0 -33 -2 -35
-35 -35 -33 0 -35 2 -35 35 0 32 -2 35 -30 35 -28 0 -30 -3 -30 -35 0 -32 -2
-35 -30 -35 -28 0 -30 3 -30 35 0 33 -2 35 -35 35 -32 0 -35 2 -35 30 0 27 -3
30 -30 30 -27 0 -30 -3 -30 -30 0 -28 -3 -30 -35 -30 -32 0 -35 2 -35 30 0 27
-3 30 -30 30 -27 0 -30 -3 -30 -30 0 -27 -3 -30 -30 -30 -28 0 -30 -3 -30 -35
0 -33 -2 -35 -35 -35 -33 0 -35 2 -35 35 0 32 -2 35 -30 35 -28 0 -30 -3 -30
-35 0 -33 -2 -35 -35 -35 -33 0 -35 2 -35 35 0 32 -2 35 -30 35 -28 0 -30 -3
-30 -35 0 -32 -2 -35 -30 -35 -28 0 -30 3 -30 35 0 33 -2 35 -35 35 -32 0 -35
2 -35 30 0 27 -3 30 -30 30 -27 0 -30 3 -30 30 0 27 3 30 30 30 28 0 30 3 30
35 0 33 2 35 35 35 33 0 35 -2 35 -35 0 -32 2 -35 30 -35 28 0 30 3 30 35 0
32 2 35 30 35 27 0 30 3 30 30 0 28 3 30 35 30 33 0 35 2 35 35 0 32 2 35 30
35 27 0 30 3 30 30 0 28 3 30 35 30 32 0 35 2 35 30 0 27 3 30 30 30 28 0 30
3 30 35 0 32 2 35 30 35 27 0 30 3 30 30 0 28 3 30 35 30 33 0 35 2 35 35 0
32 2 35 30 35 27 0 30 3 30 30 0 28 3 30 35 30 32 0 35 2 35 30 0 27 3 30 30
30 28 0 30 3 30 35 0 32 2 35 30 35 27 0 30 3 30 30 0 28 3 30 35 30 33 0 35
2 35 35 0 32 2 35 30 35 27 0 30 3 30 30 0 27 -3 30 -30 30 -27 0 -30 3 -30
30 0 27 3 30 30 30 28 0 30 3 30 35 0 33 2 35 35 35 32 0 35 2 35 30 0 27 3
30 30 30 28 0 30 3 30 35 0 32 2 35 30 35 27 0 30 3 30 30 0 28 3 30 35 30 32
0 35 2 35 30 0 27 3 30 30 30 27 0 30 -3 30 -30z"/>
<path d="M4960 2850 c0 -27 -3 -30 -30 -30 -28 0 -30 -3 -30 -35 0 -33 -2 -35
-35 -35 -32 0 -35 -2 -35 -30 0 -28 3 -30 35 -30 32 0 35 -2 35 -30 0 -28 -3
-30 -35 -30 -33 0 -35 -2 -35 -35 0 -32 -2 -35 -30 -35 -27 0 -30 -3 -30 -30
0 -28 -3 -30 -35 -30 -33 0 -35 -2 -35 -35 0 -32 -2 -35 -30 -35 -27 0 -30 -3
-30 -30 0 -27 -3 -30 -30 -30 -27 0 -30 -3 -30 -30 0 -28 -3 -30 -35 -30 -33
0 -35 -2 -35 -35 0 -32 -2 -35 -30 -35 -27 0 -30 -3 -30 -30 0 -28 -3 -30 -35
-30 -33 0 -35 -2 -35 -35 0 -32 -2 -35 -30 -35 -27 0 -30 -3 -30 -30 0 -27 -3
-30 -30 -30 -27 0 -30 -3 -30 -30 0 -28 -3 -30 -35 -30 -33 0 -35 -2 -35 -35
0 -32 -2 -35 -30 -35 -27 0 -30 -3 -30 -30 0 -28 -3 -30 -35 -30 -33 0 -35 -2
-35 -35 0 -32 -2 -35 -30 -35 -27 0 -30 -3 -30 -30 0 -27 -3 -30 -30 -30 -27
0 -30 3 -30 30 0 28 -3 30 -35 30 -32 0 -35 -2 -35 -30 0 -28 3 -30 35 -30 32
0 35 -2 35 -30 0 -27 3 -30 30 -30 27 0 30 3 30 30 0 27 3 30 30 30 27 0 30
-3 30 -30 0 -28 3 -30 35 -30 32 0 35 2 35 30 0 27 3 30 30 30 27 0 30 -3 30
-30 0 -28 3 -30 35 -30 32 0 35 2 35 30 0 27 3 30 30 30 27 0 30 3 30 30 0 27
3 30 30 30 27 0 30 -3 30 -30 0 -28 3 -30 35 -30 32 0 35 2 35 30 0 27 3 30
30 30 27 0 30 -3 30 -30 0 -28 3 -30 35 -30 32 0 35 -2 35 -30 0 -27 3 -30 30
-30 27 0 30 3 30 30 0 27 3 30 30 30 27 0 30 -3 30 -30 0 -28 3 -30 35 -30 32
0 35 2 35 30 0 27 3 30 30 30 27 0 30 -3 30 -30 0 -28 3 -30 35 -30 32 0 35 2
35 30 0 27 3 30 30 30 27 0 30 -3 30 -30 0 -27 3 -30 30 -30 27 0 30 3 30 30
0 28 3 30 35 30 32 0 35 2 35 30 0 28 -3 30 -35 30 -33 0 -35 2 -35 35 0 32
-2 35 -30 35 -27 0 -30 3 -30 30 0 27 3 30 30 30 28 0 30 3 30 35 0 33 2 35
35 35 32 0 35 2 35 30 0 28 -3 30 -35 30 -32 0 -35 2 -35 30 0 28 3 30 35 30
33 0 35 2 35 35 0 33 -2 35 -35 35 -32 0 -35 2 -35 30 0 27 -3 30 -30 30 -28
0 -30 3 -30 35 0 32 2 35 30 35 27 0 30 3 30 30 0 28 3 30 35 30 32 0 35 2 35
30 0 28 -3 30 -35 30 -33 0 -35 2 -35 35 0 32 -2 35 -30 35 -27 0 -30 3 -30
30 0 27 3 30 30 30 28 0 30 3 30 35 0 33 2 35 35 35 32 0 35 2 35 30 0 28 -3
30 -35 30 -32 0 -35 2 -35 30 0 28 3 30 35 30 33 0 35 2 35 35 0 33 -2 35 -35
35 -32 0 -35 2 -35 30 0 27 -3 30 -30 30 -27 0 -30 -3 -30 -30z m60 -65 c0
-32 -2 -35 -30 -35 -27 0 -30 -3 -30 -30 0 -27 3 -30 30 -30 27 0 30 -3 30
-30 0 -27 -3 -30 -30 -30 -28 0 -30 -3 -30 -35 0 -32 -2 -35 -30 -35 -27 0
-30 -3 -30 -30 0 -27 3 -30 30 -30 28 0 30 -3 30 -35 0 -32 2 -35 30 -35 27 0
30 -3 30 -30 0 -27 -3 -30 -30 -30 -27 0 -30 -3 -30 -30 0 -27 -3 -30 -30 -30
-28 0 -30 -3 -30 -35 0 -32 2 -35 30 -35 27 0 30 -3 30 -30 0 -27 3 -30 30
-30 28 0 30 -3 30 -35 0 -32 -2 -35 -30 -35 -27 0 -30 -3 -30 -30 0 -27 3 -30
30 -30 27 0 30 -3 30 -30 0 -27 -3 -30 -30 -30 -28 0 -30 -3 -30 -35 0 -32 -2
-35 -30 -35 -27 0 -30 -3 -30 -30 0 -27 3 -30 30 -30 28 0 30 -3 30 -35 0 -32
2 -35 30 -35 27 0 30 -3 30 -30 0 -27 -3 -30 -30 -30 -27 0 -30 3 -30 30 0 27
-3 30 -30 30 -27 0 -30 -3 -30 -30 0 -28 -3 -30 -35 -30 -32 0 -35 2 -35 30 0
27 -3 30 -30 30 -27 0 -30 -3 -30 -30 0 -28 -3 -30 -35 -30 -32 0 -35 2 -35
30 0 27 -3 30 -30 30 -27 0 -30 -3 -30 -30 0 -27 -3 -30 -30 -30 -27 0 -30 3
-30 30 0 28 -3 30 -35 30 -33 0 -35 2 -35 35 0 32 -2 35 -30 35 -28 0 -30 -3
-30 -35 0 -33 -2 -35 -35 -35 -33 0 -35 2 -35 35 0 32 -2 35 -30 35 -28 0 -30
-3 -30 -35 0 -32 -2 -35 -30 -35 -27 0 -30 -3 -30 -30 0 -28 -3 -30 -35 -30
-32 0 -35 2 -35 30 0 27 -3 30 -30 30 -27 0 -30 -3 -30 -30 0 -28 -3 -30 -35
-30 -32 0 -35 2 -35 30 0 28 3 30 35 30 33 0 35 2 35 35 0 32 2 35 30 35 27 0
30 3 30 30 0 28 3 30 35 30 33 0 35 2 35 35 0 32 2 35 30 35 27 0 30 3 30 30
0 27 3 30 30 30 27 0 30 3 30 30 0 28 3 30 35 30 33 0 35 2 35 35 0 32 2 35
30 35 27 0 30 3 30 30 0 28 3 30 35 30 33 0 35 2 35 35 0 32 2 35 30 35 27 0
30 3 30 30 0 27 3 30 30 30 27 0 30 3 30 30 0 28 3 30 35 30 33 0 35 2 35 35
0 32 2 35 30 35 27 0 30 3 30 30 0 28 3 30 35 30 33 0 35 2 35 35 0 32 2 35
30 35 27 0 30 3 30 30 0 27 -3 30 -30 30 -27 0 -30 3 -30 30 0 27 3 30 30 30
28 0 30 3 30 35 0 32 2 35 30 35 28 0 30 -3 30 -35z"/>
<path d="M4830 2465 c0 -32 -2 -35 -30 -35 -27 0 -30 -3 -30 -30 0 -28 -3 -30
-35 -30 -32 0 -35 -2 -35 -30 0 -27 -3 -30 -30 -30 -28 0 -30 -3 -30 -35 0
-32 -2 -35 -30 -35 -27 0 -30 -3 -30 -30 0 -28 -3 -30 -35 -30 -33 0 -35 -2
-35 -35 0 -32 -2 -35 -30 -35 -27 0 -30 -3 -30 -30 0 -28 -3 -30 -35 -30 -32
0 -35 -2 -35 -30 0 -27 -3 -30 -30 -30 -28 0 -30 -3 -30 -35 0 -32 -2 -35 -30
-35 -27 0 -30 -3 -30 -30 0 -28 -3 -30 -35 -30 -33 0 -35 -2 -35 -35 0 -33 2
-35 35 -35 33 0 35 2 35 35 0 32 2 35 30 35 27 0 30 3 30 30 0 27 3 30 30 30
27 0 30 -3 30 -30 0 -28 3 -30 35 -30 32 0 35 2 35 30 0 27 3 30 30 30 27 0
30 -3 30 -30 0 -28 3 -30 35 -30 33 0 35 -2 35 -35 0 -32 2 -35 30 -35 28 0
30 3 30 35 0 32 2 35 30 35 28 0 30 -3 30 -35 0 -33 2 -35 35 -35 33 0 35 2
35 35 0 32 2 35 30 35 28 0 30 -3 30 -35 0 -33 2 -35 35 -35 33 0 35 2 35 35
0 33 -2 35 -35 35 -32 0 -35 2 -35 30 0 28 3 30 35 30 33 0 35 2 35 35 0 32 2
35 30 35 27 0 30 3 30 30 0 27 -3 30 -30 30 -27 0 -30 3 -30 30 0 27 3 30 30
30 28 0 30 3 30 35 0 32 -2 35 -30 35 -27 0 -30 3 -30 30 0 28 -3 30 -35 30
-33 0 -35 2 -35 35 0 33 2 35 35 35 32 0 35 2 35 30 0 27 3 30 30 30 27 0 30
3 30 30 0 27 -3 30 -30 30 -28 0 -30 3 -30 35 0 33 -2 35 -35 35 -33 0 -35 -2
-35 -35z m70 -65 c0 -28 -3 -30 -35 -30 -32 0 -35 -2 -35 -30 0 -27 -3 -30
-30 -30 -28 0 -30 -3 -30 -35 0 -32 2 -35 30 -35 27 0 30 -3 30 -30 0 -28 3
-30 35 -30 33 0 35 -2 35 -35 0 -33 -2 -35 -35 -35 -32 0 -35 -2 -35 -30 0
-28 3 -30 35 -30 32 0 35 -2 35 -30 0 -28 -3 -30 -35 -30 -33 0 -35 -2 -35
-35 0 -32 -2 -35 -30 -35 -27 0 -30 -3 -30 -30 0 -28 -3 -30 -35 -30 -32 0
-35 2 -35 30 0 27 -3 30 -30 30 -27 0 -30 -3 -30 -30 0 -27 -3 -30 -30 -30
-27 0 -30 3 -30 30 0 28 -3 30 -35 30 -33 0 -35 2 -35 35 0 32 -2 35 -30 35
-28 0 -30 -3 -30 -35 0 -33 -2 -35 -35 -35 -33 0 -35 2 -35 35 0 33 2 35 35
35 32 0 35 2 35 30 0 27 3 30 30 30 27 0 30 3 30 30 0 28 3 30 35 30 33 0 35
2 35 35 0 32 2 35 30 35 27 0 30 3 30 30 0 27 3 30 30 30 28 0 30 3 30 35 0
33 2 35 35 35 32 0 35 2 35 30 0 27 3 30 30 30 27 0 30 3 30 30 0 28 3 30 35
30 32 0 35 -2 35 -30z"/>
<path d="M4700 2210 c0 -27 -3 -30 -30 -30 -28 0 -30 -3 -30 -35 0 -32 -2 -35
-30 -35 -27 0 -30 -3 -30 -30 0 -28 -3 -30 -35 -30 -32 0 -35 -2 -35 -30 0
-28 3 -30 35 -30 33 0 35 -2 35 -35 0 -32 2 -35 30 -35 28 0 30 3 30 35 0 32
2 35 30 35 28 0 30 -3 30 -35 0 -33 2 -35 35 -35 33 0 35 2 35 35 0 32 2 35
30 35 27 0 30 3 30 30 0 27 -3 30 -30 30 -27 0 -30 3 -30 30 0 27 3 30 30 30
28 0 30 3 30 35 0 32 -2 35 -30 35 -27 0 -30 3 -30 30 0 28 -3 30 -35 30 -32
0 -35 -2 -35 -30z m70 -65 c0 -33 -2 -35 -35 -35 -32 0 -35 -2 -35 -30 0 -28
3 -30 35 -30 32 0 35 -2 35 -30 0 -28 -3 -30 -35 -30 -32 0 -35 2 -35 30 0 27
-3 30 -30 30 -27 0 -30 -3 -30 -30 0 -27 -3 -30 -30 -30 -27 0 -30 3 -30 30 0
27 3 30 30 30 27 0 30 3 30 30 0 27 3 30 30 30 28 0 30 3 30 35 0 33 2 35 35
35 33 0 35 -2 35 -35z"/>
<path d="M3252 1510 c-12 -12 -22 -25 -22 -30 0 -6 -8 -10 -18 -10 -23 0 -42
-19 -42 -42 0 -13 8 -18 30 -18 27 0 30 3 30 30 0 28 3 30 35 30 32 0 35 2 35
30 0 35 -17 39 -48 10z"/>
</g>
</svg>
