<?xml version="1.0" encoding="UTF-8" standalone="no"?>
<!-- Created with Inkscape (http://www.inkscape.org/) -->

<svg
   width="189.31924mm"
   height="166.25613mm"
   viewBox="0 0 189.31924 166.25613"
   version="1.1"
   id="svg5"
   xml:space="preserve"
   sodipodi:docname="logo.svg"
   inkscape:version="1.2.2 (732a01da63, 2022-12-09)"
   xmlns:inkscape="http://www.inkscape.org/namespaces/inkscape"
   xmlns:sodipodi="http://sodipodi.sourceforge.net/DTD/sodipodi-0.dtd"
   xmlns="http://www.w3.org/2000/svg"
   xmlns:svg="http://www.w3.org/2000/svg"><sodipodi:namedview
     id="namedview7"
     pagecolor="#505050"
     bordercolor="#eeeeee"
     borderopacity="1"
     inkscape:showpageshadow="0"
     inkscape:pageopacity="0"
     inkscape:pagecheckerboard="0"
     inkscape:deskcolor="#505050"
     inkscape:document-units="mm"
     showgrid="false"
     inkscape:zoom="1.0129245"
     inkscape:cx="574.08029"
     inkscape:cy="368.73429"
     inkscape:window-width="2400"
     inkscape:window-height="1261"
     inkscape:window-x="2391"
     inkscape:window-y="-9"
     inkscape:window-maximized="1"
     inkscape:current-layer="layer1" /><defs
     id="defs2" /><g
     inkscape:label="Capa 1"
     inkscape:groupmode="layer"
     id="layer1"
     transform="translate(-16.575203,-34.46609)"><g
       id="g2040"
       transform="translate(4.7929374,3.5277788)"><path
         style="display:inline;fill:#fefefe;stroke-width:0.200515;image-rendering:auto"
         d="M 30.530611,125.24428 V 64.483885 h 48.258999 48.259 v 60.760395 l 3.32463,43.6755 -44.030461,12.4671 -0.337561,-0.25898 -0.483456,-0.18614 -1.249165,-0.96163 -1.292977,-0.94321 -1.412317,-1.04635 -1.964095,-1.46426 -2.171561,-1.63888 -4.987127,-3.91513 -6.215817,-5.25099 -2.592421,-2.33828 -3.212143,-3.03552 -10.31993,-9.94784 -13.460395,-16.38187 z"
         id="path2062"
         inkscape:label="fondoblanco"
         sodipodi:insensitive="true"
         sodipodi:nodetypes="ccccccccccccccccccccc" /><path
         style="display:inline;fill:#d2f3ed;stroke-width:0.352778"
         d="m 103.0086,195.20782 c -5.199572,-3.72762 -14.411044,-10.78291 -15.197301,-11.63998 -0.431493,-0.47036 -1.860243,-1.58617 -3.175,-2.4796 -3.585125,-2.43623 -10.348422,-7.58856 -14.914079,-11.36165 l -4.056945,-3.35269 -7.250423,-7.2557 C 49.634485,150.33144 42.994223,142.58244 34.814974,131.57778 33.012327,129.15243 31.091661,126.77118 30.54683,126.28611 28.408627,124.38245 21.064706,112.35055 18.488619,106.53056 14.627952,97.808407 13.478237,94.085578 12.38754,86.775003 l -0.605274,-4.056945 0.220381,-4.409722 0.220381,-4.409722 0.674574,-3.351389 C 14.80453,61.073296 19.015183,53.234051 26.134144,45.903899 l 3.547798,-3.653046 3.527778,-2.357825 c 1.940277,-1.296803 5.035902,-3.101306 6.879166,-4.010007 l 3.351389,-1.652183 4.233333,-1.201717 4.233334,-1.201717 4.208141,-0.444546 4.208142,-0.444547 3.459677,0.226727 c 11.171242,0.732094 21.019294,4.73765 29.508906,12.002326 l 2.932087,2.509027 2.93804,3.639669 2.938035,3.639669 1.53821,2.800772 c 0.84601,1.540425 1.83811,3.315698 2.20466,3.945054 l 0.66645,1.144281 0.31543,-0.529167 c 0.17349,-0.291042 1.21154,-2.116667 2.30679,-4.056945 8.42056,-14.917437 23.49507,-24.193309 40.76199,-25.082287 l 4.319,-0.222361 4.1915,0.588313 4.1915,0.588312 4.10861,1.349148 c 4.69146,1.540537 8.81194,3.514904 12.96665,6.213082 l 2.88048,1.870664 2.69441,2.559423 c 8.12487,7.717838 12.99476,16.619029 15.18609,27.757141 l 0.57477,2.921437 0.0475,5.36884 0.0475,5.368844 -0.81206,3.704167 C 193.65247,119.51871 159.68079,159.41301 110.2368,194.99689 l -3.05352,2.19756 h -0.70177 -0.70177 z M 87.008331,178.20729 v -3.11215 l 0.561943,-1.64922 0.561943,-1.64921 1.557652,-1.3711 1.557648,-1.3711 1.564404,-0.39392 1.5644,-0.39392 13.337529,-0.008 13.33754,-0.008 1.41111,-0.65127 c 1.70779,-0.7882 2.78257,-1.90501 3.51094,-3.64825 l 0.546,-1.30674 -0.002,-15.44536 -0.002,-15.44536 -0.36437,-1.31196 c -0.44003,-1.58441 -1.79087,-3.26 -3.28969,-4.08057 l -1.10421,-0.60469 -12.17083,-0.21573 -12.170835,-0.21572 -2.801602,-0.58502 c -1.54088,-0.32176 -3.28713,-0.86235 -3.880556,-1.2013 l -1.078953,-0.61629 -0.78989,-1.58411 c -0.434443,-0.87127 -0.956028,-2.48283 -1.159083,-3.58125 l -0.369189,-1.99714 -0.07564,-11.2295 -0.07564,-11.229498 -1.002693,-2.170049 -1.00269,-2.170046 -0.937588,-0.897844 c -0.51567,-0.493815 -1.731335,-1.263544 -2.701474,-1.71051 L 79.776386,85.54028 69.202522,85.423836 c -5.815627,-0.06404 -11.25951,-0.01362 -12.097527,0.112042 l -1.523657,0.228487 -1.240621,1.089279 c -0.682343,0.599105 -1.548769,1.693298 -1.925391,2.431542 l -0.684773,1.342263 v 14.232291 14.23229 l -0.913776,1.83371 -0.913775,1.8337 -1.291086,1.06776 -1.291085,1.06775 -1.234723,0.30832 c -4.618372,1.15327 -6.154829,1.43598 -7.819014,1.43869 -6.428806,0.0105 -6.388579,-0.0928 -2.145207,5.50849 15.467841,20.41777 26.571281,31.74964 43.481321,44.37586 5.8466,4.36548 6.409422,4.75136 6.964151,4.77464 l 0.440972,0.0185 z"
         id="path2060" /><path
         style="display:inline;fill:#aeebd5;stroke-width:0.352778"
         d="m 103.71313,195.13954 c -3.64942,-2.51405 -13.713737,-10.18046 -15.179557,-11.5629 l -1.270889,-1.1986 0.175309,-3.97255 0.175306,-3.97254 0.721519,-1.40744 c 0.837335,-1.63338 1.879826,-2.65681 3.612402,-3.54636 l 1.234722,-0.63394 13.934718,-0.13676 13.93473,-0.13675 1.15549,-0.35922 c 0.63552,-0.19757 1.65029,-0.77557 2.25506,-1.28445 l 1.09957,-0.92523 0.64761,-1.4257 0.64761,-1.42571 0.008,-16.15091 0.008,-16.15092 -0.54601,-1.30677 c -0.6524,-1.56142 -1.71775,-2.76037 -3.15816,-3.5542 l -1.05833,-0.58327 -11.81806,-0.22651 -11.818053,-0.22652 -3.175,-0.59152 -3.175,-0.59153 -1.045852,-0.60613 -1.045849,-0.60613 -0.641328,-1.09811 c -0.352732,-0.60396 -0.891847,-2.26522 -1.198034,-3.69168 l -0.556701,-2.59358 0.20653,-8.81944 0.206531,-8.819445 -0.350923,-2.440982 -0.350922,-2.440986 -0.907475,-2.022119 -0.907471,-2.022119 -0.937588,-0.897844 C 84.078857,87.21686 82.863192,86.447131 81.893053,86.000165 L 80.129164,85.187503 68.841499,85.076364 c -6.208218,-0.06113 -11.813628,-0.01245 -12.456467,0.108129 l -1.168798,0.219266 -1.427134,1.289332 c -0.784928,0.709133 -1.608893,1.692349 -1.831037,2.184926 l -0.403899,0.895597 -0.176389,14.816666 -0.176389,14.81667 -0.881944,1.55596 -0.881945,1.55597 -1.265015,1.0165 -1.265015,1.0165 -3.907392,0.87858 -3.907394,0.87858 -4.161213,-0.0996 -4.161213,-0.0997 -1.983659,-2.8392 C 20.564085,111.5017 14.92424,98.991218 13.140974,88.56492 l -0.568755,-3.325358 v -4.990948 -4.990949 l 0.55819,-3.325357 0.558189,-3.325361 1.185299,-3.584268 c 1.431209,-4.327885 3.112077,-7.76483 5.74347,-11.743934 l 1.971331,-2.980979 3.661023,-3.789389 3.661023,-3.789389 3.060599,-2.075132 c 5.927714,-4.019079 10.280009,-6.006043 16.995321,-7.758915 l 3.704167,-0.966884 7.408333,0.0106 7.408333,0.0106 3.175001,0.751735 c 11.46412,2.714321 21.495413,9.263337 28.456462,18.578047 l 2.33404,3.123213 1.82582,3.49137 1.82582,3.491371 0.41782,-0.0014 0.41782,-0.0014 1.31215,-2.556126 c 7.16624,-13.960073 19.65672,-23.394537 34.98646,-26.426395 l 3.56527,-0.705127 4.93889,-0.002 4.93889,-0.002 3.35139,0.580573 c 12.00651,2.079737 22.40037,8.326613 30.24534,18.177737 l 2.94982,3.704167 2.25374,4.586111 2.25375,4.586111 0.93177,3.268028 c 0.51247,1.797413 1.1569,4.654913 1.43206,6.35 l 0.50028,3.081972 0.001,4.459796 0.001,4.459795 -0.71005,3.541956 c -5.68478,28.356649 -34.43051,63.637239 -81.13453,99.578909 -12.86945,9.90386 -11.73021,9.36746 -15.0452,7.0838 z"
         id="path2058" /><path
         style="fill:#90e5c6;stroke-width:0.352778"
         d="m 105.0021,195.85303 c -2.03678,-1.38632 -12.375381,-9.16831 -14.765443,-11.11413 l -2.592504,-2.11064 0.123059,-4.27038 0.123063,-4.27038 0.705556,-1.19732 c 0.388056,-0.65852 1.281952,-1.66316 1.986439,-2.23253 l 1.280883,-1.03521 1.36495,-0.31669 1.36495,-0.31669 13.052777,-0.0104 13.05278,-0.0104 1.41111,-0.38766 1.41111,-0.38766 1.47842,-1.53504 1.47841,-1.53504 0.3717,-1.33852 0.3717,-1.33853 0.002,-15.27781 0.002,-15.27781 -0.38394,-1.52475 -0.38394,-1.52476 -1.05892,-1.28465 c -0.58241,-0.70657 -1.56057,-1.55916 -2.1737,-1.89466 l -1.11508,-0.61003 -12.17083,-0.21029 -12.170837,-0.21029 -2.709661,-0.5618 c -1.490313,-0.30899 -3.19532,-0.81294 -3.788901,-1.11989 l -1.079239,-0.5581 -0.668185,-1.31565 c -0.367503,-0.7236 -0.848946,-2.19176 -1.069873,-3.26256 l -0.40169,-1.94691 -0.08168,-11.28225 -0.08168,-11.282258 -0.840148,-2.116667 -0.84015,-2.116667 -1.495443,-1.451119 -1.495443,-1.451117 -1.719788,-0.648998 -1.719792,-0.648994 -11.1125,-0.130952 -11.1125,-0.130947 -1.328765,0.394892 -1.328766,0.394896 -1.284252,1.127587 -1.284253,1.127591 -0.642429,1.414134 -0.64243,1.414138 -0.0078,14.264321 -0.0078,14.26431 -0.72952,1.50699 -0.729519,1.50699 -1.204909,1.05792 -1.204909,1.05792 -1.328766,0.33421 c -0.730822,0.18382 -2.386697,0.58786 -3.679723,0.89786 l -2.350932,0.56365 h -4.236135 -4.236135 l -1.174018,-1.37807 C 23.471128,116.71511 15.282096,99.020907 13.493752,88.56492 l -0.568755,-3.325358 v -4.990948 -4.990949 l 0.569852,-3.325357 C 14.623771,65.3445 17.15318,59.127095 21.112413,53.207976 l 2.198211,-3.286361 3.538436,-3.564209 3.538437,-3.564209 2.822223,-1.938462 c 5.431064,-3.730363 10.123529,-5.870957 16.586838,-7.566527 l 3.521495,-0.923821 6.056782,-0.178697 6.056781,-0.178697 3.644608,0.59881 3.644607,0.59881 3.175,1.071871 c 12.775343,4.312921 22.69176,12.929847 28.753019,24.985101 l 1.41736,2.818973 h 0.48637 0.48639 l 0.78537,-1.675695 c 2.70461,-5.770574 6.34345,-10.704495 11.41737,-15.480878 l 3.19331,-3.006042 2.83596,-1.87484 c 5.49171,-3.630542 11.26007,-5.975831 17.93973,-7.293899 l 3.59345,-0.709082 4.93889,6.35e-4 4.93889,6.35e-4 3.29063,0.571307 c 1.80984,0.314218 4.97068,1.121654 7.02409,1.794301 l 3.73347,1.222994 3.81796,2.006739 c 6.78884,3.568241 12.29229,8.407707 16.87255,14.836891 l 2.19463,3.080547 1.70863,3.527778 c 1.89524,3.913043 3.2138,7.735426 4.13757,11.994445 l 0.61214,2.822222 -0.0212,6.702778 -0.0212,6.702778 -1.26879,4.827217 -1.26879,4.827221 -1.67445,4.16861 c -6.1998,15.43464 -18.03567,31.92611 -36.13074,50.34266 -14.78567,15.04834 -32.04902,29.99222 -48.63371,42.09937 l -3.99938,2.91964 -0.5867,-0.0185 c -0.32269,-0.0102 -0.98264,-0.28799 -1.46655,-0.61736 z"
         id="path2056" /><path
         style="display:inline;opacity:0.0107239;fill:#9082e3;fill-opacity:1;stroke-width:0.352778"
         d="m 104.83649,195.40269 c -2.13553,-1.3543 -12.476813,-9.0887 -14.917742,-11.1572 L 88.066664,182.676 v -4.0067 -4.0067 l 0.374414,-0.9931 c 0.405289,-1.07499 2.194232,-3.09299 3.329753,-3.75609 l 0.705556,-0.41202 14.463893,-0.17639 14.46388,-0.17638 1.76155,-0.88195 1.76154,-0.88194 1.06068,-1.5297 1.06068,-1.52969 v -17.40173 -17.40172 l -1.06156,-1.51042 -1.06156,-1.51041 -1.74987,-0.90123 -1.74985,-0.90122 -12.53442,-0.22383 -12.534408,-0.22384 -2.16209,-0.50132 c -1.189151,-0.27572 -2.593062,-0.78369 -3.119805,-1.12883 l -0.957714,-0.62752 -0.645216,-1.46955 c -0.35487,-0.80825 -0.817788,-2.43159 -1.028711,-3.60742 l -0.38349,-2.13786 0.09157,-10.20936 0.09157,-10.209355 -0.614288,-1.984001 -0.614289,-1.984005 -1.1496,-1.712228 -1.149601,-1.712228 -1.940277,-0.980482 -1.940278,-0.980479 -2.850364,-0.376873 -2.850363,-0.376872 -9.32047,0.114695 -9.32047,0.114695 -1.234722,0.658626 c -1.726632,0.921021 -2.780521,1.948388 -3.56211,3.472458 L 51.025,89.921893 v 13.884747 13.88475 l -0.525702,1.77023 -0.525706,1.77024 -1.197056,1.23257 c -1.360713,1.40108 -2.091115,1.71732 -6.041813,2.61592 l -2.822223,0.64192 -4.233333,-0.0753 -4.233333,-0.0753 -1.058334,-1.20046 C 25.182658,118.46736 17.022934,102.1321 14.716087,92.997996 L 13.6825,88.905445 13.257522,84.783459 12.832544,80.661473 13.074373,77.458021 C 14.803511,54.552504 31.322169,36.376336 53.686762,32.770518 l 2.806291,-0.452455 4.938889,0.01384 4.938889,0.01384 3.175,0.590242 c 6.435199,1.196322 12.760014,3.773612 18.380216,7.489728 l 3.139228,2.075679 3.543558,3.527778 c 4.368916,4.349461 6.627127,7.364964 9.147767,12.215488 1.07147,2.061855 2.18388,3.944486 2.47203,4.183623 l 0.5239,0.434799 0.55135,-1.00862 c 0.30325,-0.554743 1.55873,-2.795708 2.78996,-4.979921 l 2.23861,-3.9713 2.01638,-2.464613 c 1.109,-1.355538 3.34824,-3.725337 4.97608,-5.266221 l 2.9597,-2.801607 2.91117,-1.925179 c 7.62462,-5.042233 15.53764,-7.654402 24.88035,-8.213261 l 3.78359,-0.226327 4.05694,0.595723 c 9.83619,1.444346 18.48003,5.26832 25.4,11.23678 2.41657,2.084285 3.6574,3.449173 7.72504,8.497404 2.85877,3.54794 6.37256,11.328784 7.82586,17.329343 l 0.68352,2.822222 0.3631,4.37296 0.3631,4.372963 -0.37332,3.347914 c -2.47757,22.21903 -20.50286,48.97658 -53.62896,79.60923 -12.30637,11.38005 -33.02682,28.32512 -38.72631,31.67016 l -1.0335,0.60657 z"
         id="path2054" /><path
         style="fill:#64e9b6;stroke-width:0.352778"
         d="M 103.0086,194.14986 C 99.728715,191.79893 92.115886,186.00037 89.742359,184.0452 l -1.675695,-1.38034 v -3.85904 -3.85903 l 0.546005,-1.30677 c 0.652258,-1.56108 1.717372,-2.75996 3.158162,-3.55478 l 1.058333,-0.58385 14.463886,-0.17639 14.46389,-0.17638 1.23472,-0.65863 c 1.72664,-0.92102 2.78052,-1.94839 3.56211,-3.47246 l 0.67123,-1.30886 -0.008,-16.68281 -0.008,-16.6828 -0.65225,-1.43607 -0.65225,-1.43606 -1.32286,-1.09042 -1.32286,-1.09041 -1.52475,-0.38394 -1.52475,-0.38393 -10.16254,-0.002 -10.162528,-0.002 -3.501937,-0.52782 -3.501933,-0.52782 -1.260567,-0.61663 -1.260535,-0.61655 -0.780059,-1.5875 -0.780059,-1.5875 -0.391593,-2.46944 -0.391598,-2.46945 0.236509,-8.81944 0.23651,-8.819448 -0.536067,-2.513927 -0.536067,-2.513929 -0.917657,-1.810904 -0.917656,-1.810907 -1.461223,-1.058506 C 83.317086,86.18604 81.852078,85.446904 80.865182,85.125689 L 79.070831,84.541665 68.840275,84.388927 58.60972,84.236191 l -1.783881,0.3975 -1.783884,0.397496 -1.313163,1.082421 -1.313159,1.082417 -0.70081,1.373699 -0.700811,1.373703 -0.0827,14.555373 -0.0827,14.55537 -0.663085,1.33457 -0.663085,1.33456 -1.422791,1.21786 -1.422795,1.21786 -1.26551,0.21045 c -0.696034,0.11575 -2.059262,0.42763 -3.029401,0.69306 -1.969375,0.53883 -3.1125,0.58133 -7.871776,0.29266 L 31.224504,125.1559 27.94349,120.16476 C 17.766473,104.68328 13.668753,93.227587 13.61776,80.115373 l -0.01869,-4.805648 0.691689,-3.880556 0.691689,-3.880556 1.100064,-2.967362 c 4.272503,-11.524846 12.399616,-21.009616 22.379649,-26.118236 1.530649,-0.783514 2.959399,-1.557662 3.174999,-1.720327 0.440362,-0.332242 4.676129,-1.813701 7.623948,-2.666476 1.067152,-0.308717 4.028228,-0.801244 6.580169,-1.094504 l 4.639893,-0.533202 4.355941,0.353705 4.355941,0.353706 2.996491,0.748382 c 5.748182,1.435626 9.855041,3.267467 15.417821,6.877034 l 2.892087,1.876614 3.530035,3.407348 c 1.94152,1.874042 3.965543,4.061317 4.497825,4.860611 0.532285,0.799295 1.146337,1.612013 1.364559,1.80604 0.68114,0.605619 2.7971,4.114233 4.19336,6.953275 0.73573,1.495965 1.55801,2.90279 1.82729,3.126271 l 0.4896,0.406333 0.55166,-0.211688 0.55165,-0.211691 0.74046,-1.679861 c 0.76801,-1.742366 3.05064,-5.677931 5.06655,-8.735416 0.63965,-0.970139 2.50194,-3.127059 4.13841,-4.793155 7.68721,-7.826359 15.0431,-11.86446 25.75146,-14.136557 l 3.60185,-0.76424 4.7625,-0.02839 4.7625,-0.02839 3.52778,0.645481 c 6.35541,1.162856 12.2057,3.368829 16.93334,6.385059 0.97013,0.618949 2.39888,1.532456 3.175,2.030016 2.0977,1.344825 6.99709,6.03568 8.50279,8.140879 0.72529,1.014059 1.75476,2.319993 2.28772,2.902077 3.98143,4.348392 8.17078,15.85056 8.80036,24.162054 l 0.30707,4.05372 -0.35026,3.696617 -0.35025,3.696621 -1.22717,4.355154 c -2.20016,7.808245 -7.02018,18.356795 -11.29205,24.712505 -0.95663,1.42328 -2.05683,3.10008 -2.44488,3.72623 -1.43553,2.31631 -6.08226,8.53332 -8.83349,11.8186 -1.55995,1.86276 -3.51896,4.25996 -4.35337,5.32711 -3.50973,4.48872 -19.92549,21.36118 -27.73536,28.50697 -10.48053,9.58937 -18.46223,16.20725 -29.88302,24.77698 l -6.09253,4.57161 h -0.76057 -0.76057 z"
         id="path2052" /><path
         style="fill:#5ce3c3;stroke-width:0.352778"
         d="M 103.0086,194.14986 C 99.728715,191.79893 92.115886,186.00037 89.742359,184.0452 l -1.675695,-1.38034 v -3.85904 -3.85903 l 0.546005,-1.30677 c 0.652258,-1.56108 1.717372,-2.75996 3.158162,-3.55478 l 1.058333,-0.58385 14.463886,-0.17639 14.46389,-0.17638 1.23472,-0.65863 c 1.72664,-0.92102 2.78052,-1.94839 3.56211,-3.47246 l 0.67123,-1.30886 -0.008,-16.68281 -0.008,-16.6828 -0.65225,-1.43607 -0.65225,-1.43606 -1.32286,-1.09042 -1.32286,-1.09041 -1.52475,-0.38394 -1.52475,-0.38393 -10.16254,-0.002 -10.162528,-0.002 -3.501937,-0.52782 -3.501933,-0.52782 -1.260567,-0.61663 -1.260535,-0.61655 -0.780059,-1.5875 -0.780059,-1.5875 -0.391593,-2.46944 -0.391598,-2.46945 0.236509,-8.81944 0.23651,-8.819448 -0.536067,-2.513927 -0.536067,-2.513929 -0.917657,-1.810904 -0.917656,-1.810907 -1.461223,-1.058506 C 83.317086,86.18604 81.852078,85.446904 80.865182,85.125689 L 79.070831,84.541665 68.840275,84.388927 58.60972,84.236191 l -1.783881,0.3975 -1.783884,0.397496 -1.313163,1.082421 -1.313159,1.082417 -0.717412,1.406243 -0.717409,1.406239 7.06e-4,13.441313 7.05e-4,13.44131 -0.327593,1.72738 -0.327593,1.72739 -0.733876,1.03064 c -0.403635,0.56685 -1.240621,1.41715 -1.859965,1.88954 l -1.126088,0.85891 -2.641677,0.59261 c -1.452923,0.32593 -3.356053,0.69764 -4.229178,0.82603 l -1.5875,0.23342 -1.085676,-0.31515 -1.085676,-0.31514 -0.900633,-2.16435 c -0.495348,-1.1904 -1.316482,-3.167 -1.824741,-4.39246 -0.508259,-1.22547 -0.925826,-2.57484 -0.927926,-2.99862 -0.0021,-0.42377 -0.23477,-1.53166 -0.517044,-2.46197 l -0.513226,-1.69149 -0.38161,-4.43142 -0.38161,-4.43142 0.396086,-2.696541 c 0.619622,-4.219353 1.454092,-7.814635 2.304271,-9.928486 0.768814,-1.911548 1.167638,-2.666351 3.75483,-7.106275 l 1.306635,-2.242337 2.69513,-2.998611 c 1.482319,-1.649236 2.958084,-3.139535 3.279475,-3.311779 0.321391,-0.17224 1.008006,-0.727865 1.525813,-1.234722 3.378056,-3.306618 10.771604,-6.756079 17.064585,-7.961478 l 3.189386,-0.610916 5.453669,0.173002 5.453673,0.173002 2.822222,0.695202 2.822223,0.695198 3.691339,1.644946 c 6.113308,2.724235 8.965816,4.745905 13.70516,9.713313 l 1.874272,1.964468 2.07795,3.527799 c 1.14287,1.940288 2.22196,3.765924 2.39798,4.056965 l 0.32003,0.529167 1.25424,-2.48975 c 0.68984,-1.369364 1.50576,-2.698489 1.81316,-2.953611 0.30741,-0.255125 0.55892,-0.654879 0.55892,-0.88834 0,-0.233462 0.39688,-0.797321 0.88195,-1.253021 0.48507,-0.455701 0.88194,-0.988695 0.88194,-1.184438 0,-1.270469 10.42354,-9.635881 13.05278,-10.47551 0.48507,-0.154905 1.75507,-0.627038 2.82222,-1.049193 2.62916,-1.040063 5.73692,-1.944575 8.31152,-2.419071 l 2.1379,-0.394011 h 4.80281 4.80282 l 3.28984,0.739384 3.28984,0.739387 1.74495,0.848113 c 0.95973,0.466464 2.03918,0.848116 2.39877,0.848116 2.75686,0 12.42906,7.725901 15.67856,12.523612 1.44543,2.134108 2.68953,3.932054 3.53631,5.110571 0.88712,1.234684 2.11115,4.547899 3.12964,8.471373 l 0.86999,3.351389 0.34966,3.602383 0.34966,3.60239 -0.18081,1.51289 c -0.80271,6.71648 -1.47965,9.33234 -4.08886,15.80039 -2.47638,6.13878 -3.03963,7.40651 -3.56645,8.02711 -0.28758,0.33877 -0.96809,1.4097 -1.51225,2.37984 -0.54415,0.97014 -1.27481,2.08139 -1.62369,2.46944 -0.34887,0.38806 -0.79671,1.13423 -0.9952,1.65817 -0.39371,1.03927 -5.04778,7.1691 -9.05495,11.92618 -10.09458,11.9837 -28.9069,28.92153 -48.20724,43.40377 l -6.09253,4.57161 h -0.76057 -0.76057 z"
         id="path2050" /><path
         style="display:inline;fill:#4dd2c6;stroke-width:0.352778"
         d="M 103.0086,194.14986 C 99.728715,191.79893 92.115886,186.00037 89.742359,184.0452 l -1.675695,-1.38034 v -3.85904 -3.85903 l 0.546005,-1.30677 c 0.652258,-1.56108 1.717372,-2.75996 3.158162,-3.55478 l 1.058333,-0.58385 14.463886,-0.17639 14.46389,-0.17638 1.23472,-0.65863 c 1.72664,-0.92102 2.78052,-1.94839 3.56211,-3.47246 l 0.67123,-1.30886 -0.008,-16.68281 -0.008,-16.6828 -0.65225,-1.43607 -0.65225,-1.43606 -1.32286,-1.09042 -1.32286,-1.09041 -1.52475,-0.38394 -1.52475,-0.38393 -10.16254,-0.002 -10.162528,-0.002 -3.501937,-0.52782 -3.501933,-0.52782 -1.260567,-0.61663 -1.260535,-0.61655 -0.780059,-1.5875 -0.780059,-1.5875 -0.391593,-2.46944 -0.391598,-2.46945 0.236509,-8.81944 0.23651,-8.819448 -0.536067,-2.513927 -0.536067,-2.513929 -0.917657,-1.810904 -0.917656,-1.810907 -1.461223,-1.058506 C 83.317086,86.18604 81.852078,85.446904 80.865182,85.125689 L 79.070831,84.541665 68.840275,84.388927 58.60972,84.236191 l -1.783881,0.3975 -1.783884,0.397496 -1.313163,1.082421 -1.313159,1.082417 -0.717412,1.406243 -0.717409,1.406239 7.06e-4,13.441313 7.05e-4,13.44131 -0.327593,1.72738 -0.327593,1.72739 -0.733876,1.03064 c -0.403635,0.56685 -1.240621,1.41715 -1.859965,1.88954 l -1.126088,0.85891 -2.641677,0.58888 c -1.452923,0.32387 -3.416829,0.705 -4.364239,0.84693 l -1.722559,0.25807 -0.823627,-0.73652 -0.823626,-0.73651 -1.253359,-3.14896 c -0.689348,-1.73194 -1.638826,-4.59769 -2.109952,-6.36834 l -0.856593,-3.21937 -0.431354,-3.9771 -0.431354,-3.97711 0.429385,-3.69391 0.429386,-3.693912 0.869249,-2.999599 c 1.069618,-3.691029 2.737914,-7.256328 5.05955,-10.81272 l 1.76747,-2.707492 3.103026,-3.124211 3.10303,-3.12421 2.263264,-1.528646 c 4.694932,-3.171134 9.917659,-5.322775 15.551869,-6.407066 l 2.293056,-0.441293 4.7625,0.01598 4.7625,0.01598 3.351389,0.791626 3.351389,0.79163 3.351389,1.436028 c 4.334658,1.85735 7.603063,3.95697 11.130657,7.150325 l 2.84038,2.571253 2.131013,2.995881 c 1.17206,1.647733 2.67202,4.042089 3.33324,5.320788 1.48983,2.881129 1.40388,2.890993 3.19157,-0.366264 3.01639,-5.496021 6.66183,-9.667029 11.76897,-13.465715 l 2.11667,-1.574377 3.88056,-1.884327 3.88055,-1.884327 2.82222,-0.707468 c 1.55223,-0.389107 4.25098,-0.863914 5.99723,-1.055123 l 3.175,-0.347656 4.05694,0.32462 4.05694,0.324615 2.64584,0.740696 c 14.82164,4.14928 25.19197,15.155644 28.41745,30.160345 l 0.60668,2.822222 -3e-4,4.762507 -3.1e-4,4.7625 -0.73871,3.19339 c -2.65954,11.49697 -9.18116,23.14202 -20.83308,37.19964 l -3.36267,4.05695 -7.42439,7.43689 c -11.82235,11.84225 -20.50218,19.30283 -35.8963,30.854 l -6.09253,4.57161 h -0.76057 -0.76057 z"
         id="path2048" /><path
         style="display:inline;fill:#56b2ce;stroke-width:0.352778"
         d="M 103.0086,194.14986 C 99.728715,191.79893 92.115886,186.00037 89.742359,184.0452 l -1.675695,-1.38034 v -3.85904 -3.85903 l 0.546005,-1.30677 c 0.652258,-1.56108 1.717372,-2.75996 3.158162,-3.55478 l 1.058333,-0.58385 14.463886,-0.17639 14.46389,-0.17638 1.23472,-0.65863 c 1.72664,-0.92102 2.78052,-1.94839 3.56211,-3.47246 l 0.67123,-1.30886 -0.008,-16.68281 -0.008,-16.6828 -0.65225,-1.43607 -0.65225,-1.43606 -1.32286,-1.09042 -1.32286,-1.09041 -1.52475,-0.38394 -1.52475,-0.38393 -10.16254,-0.002 -10.162528,-0.002 -3.501937,-0.52782 -3.501933,-0.52782 -1.260567,-0.61663 -1.260535,-0.61655 -0.780059,-1.5875 -0.780059,-1.5875 -0.391593,-2.46944 -0.391598,-2.46945 0.236509,-8.81944 0.23651,-8.819448 -0.536067,-2.513927 -0.536067,-2.513929 -0.917657,-1.810904 -0.917656,-1.810907 -1.461223,-1.058506 C 83.317086,86.18604 81.852078,85.446904 80.865182,85.125689 L 79.070831,84.541665 68.840275,84.388927 58.60972,84.236191 l -1.783881,0.3975 -1.783884,0.397496 -1.313163,1.082421 -1.313159,1.082417 -0.717412,1.406243 -0.717409,1.406239 7.06e-4,13.441313 7.05e-4,13.44131 -0.327593,1.72738 -0.327593,1.72739 -0.733876,1.03064 c -0.403635,0.56685 -1.240621,1.41715 -1.859965,1.88954 l -1.126088,0.85891 -2.641677,0.58888 c -3.6022,0.80298 -5.920443,1.13113 -6.294047,0.89093 -1.070763,-0.68835 -3.962003,-8.35374 -5.065609,-13.4298 l -0.728639,-3.35139 -0.01083,-4.93888 -0.01082,-4.938894 0.575798,-2.518308 c 3.60069,-15.747993 14.968357,-26.993317 30.6601,-30.330119 l 2.926669,-0.622346 4.938889,0.02879 4.938889,0.02879 3.377413,0.883701 c 4.370155,1.143455 7.97136,2.657052 11.525028,4.843995 l 2.854946,1.75695 2.912946,2.733721 2.912943,2.733721 1.966693,2.662043 c 1.08168,1.464127 2.6017,3.88335 3.37781,5.376059 l 1.41111,2.714014 0.37611,0.0038 0.3761,0.0038 1.03501,-2.174899 c 0.56925,-1.196196 1.84608,-3.357524 2.8374,-4.802947 l 1.80239,-2.628046 2.77252,-2.790948 2.77253,-2.790945 2.54587,-1.759956 c 3.29297,-2.276429 7.625,-4.322561 11.49257,-5.428237 l 3.07994,-0.880506 3.3813,-0.34593 3.3813,-0.345934 3.96114,0.322859 3.96113,0.322859 3.15957,0.906265 3.15956,0.906264 3.52778,1.716751 3.52778,1.716755 2.29306,1.742411 c 1.26118,0.958325 3.59799,3.12159 5.19291,4.80725 l 2.89985,3.064838 1.76721,2.871608 c 3.28408,5.336455 4.99542,10.480238 5.6598,17.011711 l 0.37114,3.6486 -0.36469,3.30301 -0.36468,3.30301 -1.067,3.78166 c -6.30424,22.34341 -29.43707,49.12277 -66.37895,76.84256 l -6.09253,4.5716 h -0.76057 -0.76057 z"
         id="path2046" /><path
         style="display:inline;fill:#3cc2c5;stroke-width:0.352778"
         d="m 103.73726,193.93125 c -4.40432,-3.13541 -9.835182,-7.22204 -12.26453,-9.22884 l -2.524121,-2.08509 -0.235088,-1.07535 c -0.1293,-0.59144 -0.196412,-2.3519 -0.149144,-3.91213 l 0.08595,-2.83678 0.765908,-1.48409 0.765909,-1.48408 1.676287,-0.98536 1.676291,-0.98536 14.463888,-0.17639 14.46389,-0.17639 1.195,-0.65148 c 1.57848,-0.86055 2.81052,-2.2043 3.60756,-3.93463 l 0.65,-1.41111 0.008,-16.18685 0.008,-16.18685 -0.40942,-1.36652 -0.40942,-1.36651 -1.21598,-1.42061 -1.21599,-1.42061 -1.35915,-0.69338 -1.35915,-0.69339 h -10.1832 -10.18321 l -3.677374,-0.52217 c -3.84368,-0.54579 -5.396593,-0.90979 -6.57732,-1.54169 l -0.705227,-0.37743 -0.843252,-1.86616 -0.843276,-1.86616 -0.02074,-11.64167 -0.02071,-11.641667 -0.428529,-1.705984 c -1.235135,-4.91708 -3.956975,-7.704103 -8.455025,-8.657495 l -1.869444,-0.396244 -10.830553,0.0078 -10.830553,0.0078 -1.411111,0.65473 c -1.743901,0.809139 -3.492137,2.611322 -4.215455,4.345528 l -0.547045,1.311557 v 14.082165 14.08216 l -0.987277,1.88986 -0.987277,1.88986 -1.168813,0.78767 -1.168816,0.78766 -1.28349,0.189 c -0.705923,0.10395 -1.997869,0.37229 -2.870994,0.59631 -0.873125,0.22403 -2.25183,0.4755 -3.06379,0.55884 l -1.476289,0.15153 -0.864974,-1.70939 c -1.325299,-2.6191 -3.03364,-7.69296 -3.841947,-11.41078 l -0.728639,-3.35139 -0.01083,-4.93888 -0.01082,-4.938897 0.575798,-2.518308 c 3.60069,-15.747993 14.968357,-26.993317 30.6601,-30.330119 l 2.926669,-0.622346 4.938889,0.02879 4.938889,0.02879 3.377413,0.883701 c 4.370155,1.143455 7.97136,2.657052 11.525028,4.843995 l 2.854946,1.75695 2.912946,2.733721 2.912943,2.733721 1.966689,2.662043 c 1.08168,1.464127 2.6017,3.88335 3.37781,5.376059 l 1.41111,2.714014 0.37611,0.0038 0.3761,0.0038 1.03501,-2.174899 c 0.56925,-1.196196 1.84608,-3.357524 2.8374,-4.802947 l 1.80239,-2.628046 2.77252,-2.790948 2.77253,-2.790945 2.54587,-1.759956 c 3.29297,-2.276429 7.625,-4.322561 11.49257,-5.428237 l 3.07994,-0.880506 3.3813,-0.34593 3.3813,-0.345934 3.96114,0.322859 3.96113,0.322859 3.15957,0.906265 3.15956,0.906264 3.52778,1.716751 3.52778,1.716755 2.29306,1.742411 c 1.26118,0.958325 3.59799,3.12159 5.19291,4.80725 l 2.89985,3.064838 1.76721,2.871608 c 3.28408,5.336455 4.99542,10.480238 5.6598,17.011704 l 0.37114,3.6486 -0.36469,3.30301 -0.36468,3.30301 -1.067,3.78166 c -4.75056,16.83689 -17.4103,34.02629 -40.88605,55.51512 -2.33242,2.135 -14.60575,12.31073 -17.74397,14.7114 -1.21417,0.92881 -3.39821,2.59913 -4.85341,3.71183 -1.45521,1.1127 -4.11724,3.0912 -5.91561,4.39668 l -3.26978,2.37357 h -0.63008 -0.63009 z"
         id="path2044" /><path
         style="display:inline;fill:#26a8d8;stroke-width:0.352778"
         d="m 104.9903,194.83386 c -1.81249,-1.23991 -11.538102,-8.58725 -14.386659,-10.86858 l -1.761966,-1.41111 -0.172184,-1.05833 c -0.0947,-0.58209 -0.14072,-2.33448 -0.10227,-3.89422 l 0.06991,-2.8359 0.861293,-1.55482 0.861293,-1.55482 1.753887,-0.90095 1.753885,-0.90096 14.040441,-0.0849 14.04044,-0.0849 1.44815,-0.73879 c 1.79526,-0.91588 3.0232,-2.19519 3.86854,-4.03038 l 0.65,-1.41111 0.008,-16.27162 0.008,-16.27162 -0.54417,-1.54234 -0.54417,-1.54235 -1.13152,-1.17875 c -0.62234,-0.64832 -1.72051,-1.48235 -2.44039,-1.8534 l -1.30889,-0.67464 h -10.1832 -10.1832 l -3.677387,-0.52217 c -3.864173,-0.5487 -5.395775,-0.90935 -6.600935,-1.55433 l -0.728839,-0.39006 -0.819636,-2.02992 -0.819637,-2.02991 -0.01753,-11.46528 -0.01753,-11.465277 -0.430834,-1.702008 c -1.224848,-4.838806 -3.625973,-7.413558 -8.000767,-8.579316 l -1.763889,-0.470024 -11.1125,0.0036 -11.1125,0.0036 -1.411111,0.679242 c -0.776111,0.373581 -1.83847,1.044783 -2.3608,1.491559 l -0.949688,0.812317 -0.718259,1.5875 -0.718259,1.5875 -0.0078,14.130037 -0.0078,14.13004 -0.924765,1.85576 -0.924765,1.85576 -1.406147,0.88766 -1.406144,0.88766 -1.285064,0.1715 c -0.706783,0.0943 -2.267197,0.41992 -3.467587,0.72355 l -2.182526,0.55205 -0.535563,-0.20552 c -1.134624,-0.43541 -3.929654,-7.84785 -5.145301,-13.64545 l -0.702723,-3.35139 -0.0055,-4.00153 -0.0055,-4.00153 0.69816,-3.406801 c 0.868906,-4.23999 2.367389,-8.16193 4.603976,-12.049859 l 1.724993,-2.998611 2.503988,-2.769288 C 47.448653,72.708942 53.621866,69.016907 61.845094,66.93748 l 3.115085,-0.787718 5.644444,-0.0052 5.644445,-0.0052 3.527777,0.983668 3.527778,0.983668 4.23539,2.084751 4.23539,2.084751 2.570332,2.163579 c 4.311989,3.629621 8.000095,8.407989 11.021025,14.279034 l 0.5427,1.054699 h 0.64357 0.64358 l 1.51446,-2.892467 c 6.72529,-12.844689 19.87016,-20.906278 34.1069,-20.91737 l 3.42167,-0.0028 3.63388,0.703488 c 14.95797,2.895728 26.78096,14.390942 30.11761,29.282624 l 0.67187,2.998611 -0.0138,5.291672 -0.0138,5.29166 -0.6284,2.46945 c -0.34562,1.35819 -1.1254,3.97757 -1.73285,5.82083 l -1.10445,3.35139 -2.55441,5.02981 -2.5544,5.02981 -2.88588,4.3188 c -11.71042,17.52514 -30.31431,36.04152 -54.523,54.26665 l -7.45823,5.61481 h -0.66536 c -0.36594,0 -1.05787,-0.26851 -1.5376,-0.5967 z"
         id="path2042" /><path
         style="opacity:0.0107239;fill:#9082e3;fill-opacity:1;stroke-width:1.39617"
         d="m 1135.5451,598.75044 c -57.952,-41.50994 -106.1739,-87.02192 -150.67067,-142.20325 -19.631,-24.34479 -39.72338,-51.49234 -39.22444,-52.99758 0.57179,-1.72499 9.86517,-3.29955 20.32597,-3.44378 4.12835,-0.057 13.23836,-1.44313 20.24445,-3.08049 14.30569,-3.34329 20.35689,-7.39319 25.58979,-17.12645 3.0189,-5.61512 3.0795,-6.77121 3.1414,-59.88282 0.071,-60.64784 -0.1513,-59.17916 10.4877,-69.40378 l 5.0846,-4.88659 44.637,-0.40481 44.6369,-0.40481 7.2947,3.65064 c 9.7354,4.87214 12.9246,8.07585 17.2345,17.31271 3.6058,7.72815 3.6286,8.00082 4.2564,51.05088 0.6578,45.11183 1.3594,52.3168 6.1863,63.53725 2.3289,5.4138 3.9816,7.1972 8.2537,8.90655 12.8245,5.13136 22.7578,6.14636 69.7936,7.13159 52.7137,1.10416 52.3212,1.02345 59.7802,12.29053 l 3.7455,5.65763 0.4054,60.62932 c 0.4005,59.89539 0.3684,60.7056 -2.6445,66.92954 -2.0474,4.22923 -5.1389,7.62499 -9.4048,10.33038 l -6.3549,4.03015 -51.0359,0.027 c -57.3218,0.0303 -60.6022,0.44133 -69.7518,8.74115 -7.699,6.98387 -8.8612,10.2228 -9.8055,27.32634 l -0.7981,14.45381 -11.4075,-8.17105 z"
         id="path3979"
         transform="matrix(0.26458333,0,0,0.26458333,-216.79744,20.805557)" /><path
         style="opacity:0.0107239;fill:#9082e3;fill-opacity:1;stroke-width:1.39617"
         d="m 1122.791,589.29625 c -60.3257,-45.2502 -102.412,-87.03413 -152.69432,-151.59734 -21.15283,-27.16053 -25.48043,-33.47651 -23.97139,-34.98555 0.71771,-0.71773 7.24437,-1.68411 14.50368,-2.14753 18.28266,-1.16714 37.10467,-5.62884 42.93353,-10.17725 2.5725,-2.00741 6.2016,-6.61326 8.0647,-10.23522 l 3.3875,-6.58539 v -53.85453 c 0,-60.32332 -0.2189,-58.87216 10.4246,-69.10115 l 5.0846,-4.88659 44.637,-0.40481 44.6369,-0.40481 7.2947,3.65064 c 9.7441,4.8765 12.9316,8.08229 17.2136,17.31271 3.5743,7.70475 3.613,8.16616 4.6341,55.23939 0.9653,44.50445 1.2252,47.97127 4.1593,55.49864 4.0218,10.31794 5.343,11.52579 16.604,15.17996 8.4981,2.7576 13.9942,3.16222 59.6231,4.38944 56.5642,1.52132 55.8337,1.37574 63.2706,12.60937 l 3.7455,5.65763 0.4054,60.62932 c 0.4005,59.89539 0.3684,60.7056 -2.6445,66.92954 -2.0474,4.22923 -5.1389,7.62499 -9.4048,10.33038 l -6.3549,4.03015 -51.0359,0.027 c -57.3671,0.0303 -60.5966,0.43637 -69.7903,8.77592 -7.4753,6.78082 -9.867,13.65769 -9.867,28.37114 0,8.62139 -0.4734,11.6919 -1.8026,11.6919 -0.9915,0 -11.3671,-7.17431 -23.0571,-15.94291 z"
         id="path3981"
         transform="matrix(0.26458333,0,0,0.26458333,-216.79744,20.805557)" /><path
         style="opacity:0.0107239;fill:#9082e3;fill-opacity:1;stroke-width:1.39617"
         d="m 1213.9128,655.17404 c -13.2716,-8.7907 -57.2007,-43.15858 -58.136,-45.48256 -0.5219,-1.29694 -0.9931,-7.95735 -1.0471,-14.80092 -0.1303,-16.51792 3.2927,-22.97639 15.1493,-28.58367 6.8009,-3.21634 7.7076,-4.0672 6.0169,-5.64653 -1.6582,-1.54904 -1.6764,-2.06932 -0.1092,-3.11574 1.7856,-1.19209 -1.8064,-0.62272 -9.4536,1.4985 -5.0761,1.40808 -14.5715,11.16052 -16.6772,17.12882 -1.1675,3.30916 -2.0052,10.87989 -2.0052,18.12253 0,11.90509 -0.117,12.37647 -2.7257,10.98036 -6.8342,-3.65754 -55.6368,-41.30424 -67.2361,-51.86637 -2.004,-1.82488 -8.5991,-7.7159 -14.6556,-13.09115 -26.0364,-23.10771 -58.3787,-58.51058 -88.83843,-97.24544 -20.11017,-25.57357 -29.56192,-38.7731 -28.5143,-39.82072 1.38845,-1.38845 12.43959,-3.12436 20.29539,-3.188 4.12835,-0.0335 13.23836,-1.40045 20.24445,-3.03781 14.42689,-3.37161 20.45249,-7.45095 25.61079,-17.33838 3.0386,-5.82442 3.1018,-6.99977 3.233,-60.06407 0.1496,-60.50075 -0.082,-58.96089 10.3751,-69.0106 l 5.0846,-4.88659 44.5709,-0.40455 44.5708,-0.40456 7.4097,3.50537 c 9.4365,4.46418 14.0128,9.31977 17.8546,18.94436 2.856,7.15506 3.1337,10.86977 4.0699,54.45058 1.0254,47.7319 1.1697,48.99306 7.0594,61.70474 2.0017,4.32011 8.0706,7.11154 21.9269,10.08541 7.9513,1.70651 83.8038,4.66881 97.8095,3.8198 4.653,-0.28205 13.4252,5.77953 17.2368,11.91049 l 3.3103,5.32478 v 60.73334 c 0,33.40334 -0.4585,62.3627 -1.0188,64.35414 -1.1619,4.12917 -6.7959,10.23583 -12.9429,14.02875 -3.8233,2.35914 -8.1445,2.60959 -49.564,2.87268 -31.7749,0.20183 -40.1445,0.53705 -27.9234,1.11839 l 17.4522,0.83016 -14.4271,0.28301 c -10.8249,0.21234 -14.282,0.71874 -13.8459,2.02821 0.9372,2.81381 84.8809,3.20436 90.2653,0.41997 7.0663,-3.65411 12.756,-9.34403 16.2617,-16.26232 l 3.4218,-6.75256 v -60.75151 c 0,-53.15148 -0.2885,-61.49733 -2.3067,-66.71346 -2.8669,-7.41004 -6.4099,-11.50978 -14.3716,-16.62996 l -6.2071,-3.99179 -39.1684,-3.4e-4 c -31.7761,-2.6e-4 -42.222,-0.49851 -55.3481,-2.63997 -19.7959,-3.22963 -23.8469,-5.16219 -27.2775,-13.01295 -2.3352,-5.34379 -2.6934,-11.0898 -3.3326,-53.45709 -0.6905,-45.76881 -0.8347,-47.76991 -4.0225,-55.84676 -4.5672,-11.57174 -13.6946,-20.30115 -25.3382,-24.23324 -8.286,-2.79824 -11.6042,-2.99205 -51.2276,-2.99205 -40.3365,0 -42.6495,0.14143 -48.2458,2.9499 -7.668,3.84817 -11.8242,7.73128 -15.089,14.09755 -2.4756,4.82722 -2.6565,8.84264 -2.6565,58.9572 v 53.77718 l -3.7549,7.65618 c -2.8784,5.86893 -5.0784,8.32027 -9.42416,10.50103 -6.68307,3.35362 -29.1774,8.69909 -32.01867,7.6088 -3.86847,-1.48448 -12.82701,-24.53248 -18.40244,-47.34476 -10.93692,-44.74921 3.00282,-95.81765 35.29954,-129.32037 16.98081,-17.61491 35.38863,-29.64694 56.92213,-37.20648 18.7555,-6.5843 23.4089,-7.29616 47.6944,-7.29616 28.7548,0 39.1327,2.41281 64.9956,15.11117 25.8105,12.67265 41.8228,28.37688 60.5925,59.427 4.6941,7.7652 9.5122,14.31186 10.707,14.54813 1.4404,0.28486 3.938,-2.77251 7.4134,-9.0751 17.694,-32.08738 40.0107,-53.69959 69.9255,-67.71813 26.1912,-12.27365 60.2972,-16.71013 85.1043,-11.07031 37.3579,8.4932 64.1553,24.63162 86.1447,51.87974 10.9154,13.52569 21.2708,33.58599 27.0022,52.30824 3.6122,11.79948 3.8325,14.01249 3.6142,36.30039 -0.2221,22.6698 -0.4561,24.51801 -5.2148,41.18698 -14.3407,50.23262 -53.9022,108.90214 -115.6779,171.54969 -31.3603,31.80286 -59.7639,57.48896 -93.7831,84.81045 -24.3439,19.55107 -62.3552,48.00465 -64.1297,48.00465 -0.9403,0 -4.7774,-2.03207 -8.527,-4.5157 z"
         id="path3983"
         transform="matrix(0.26458333,0,0,0.26458333,-216.79744,20.805557)"
         sodipodi:nodetypes="ssssssssssssssssssscccssssssscssssscsssscssscsssssssssscsssssssssssssssssssss" /></g></g></svg>
